<svg width="18" height="14" viewBox="0 0 18 14" fill="none" xmlns="http://www.w3.org/2000/svg">
<path d="M3.31103 1.92913C3.51002 1.37194 4.0378 1 4.62946 1H13.3705C13.9622 1 14.49 1.37194 14.689 1.92913L16.4184 6.77163C16.4724 6.92275 16.5 7.08203 16.5 7.2425V11.6C16.5 12.3732 15.8732 13 15.1 13H2.9C2.1268 13 1.5 12.3732 1.5 11.6V7.2425C1.5 7.08203 1.52759 6.92275 1.58156 6.77163L3.31103 1.92913Z" stroke="#7B7B7B" stroke-width="1.3"/>
<path d="M1.5 7H6.83791C6.91681 7 6.97996 7.06506 6.98794 7.14356C7.17171 8.95215 10.8283 8.95215 11.0121 7.14356C11.02 7.06506 11.0832 7 11.1621 7H16.5" stroke="#7B7B7B" stroke-width="1.3" stroke-linecap="round"/>
</svg>
