<svg width="18" height="18" viewBox="0 0 18 18" fill="none" xmlns="http://www.w3.org/2000/svg">
<path d="M7.00145 14.2401L2.5 15.5L3.76041 11.0003L12.0031 2.80086C12.0962 2.70562 12.2075 2.62994 12.3303 2.57828C12.4531 2.52661 12.5851 2.5 12.7183 2.5C12.8515 2.5 12.9835 2.52661 13.1063 2.57828C13.2291 2.62994 13.3404 2.70562 13.4335 2.80086L15.2041 4.58074C15.2978 4.67369 15.3723 4.78429 15.4231 4.90614C15.4739 5.02799 15.5 5.15869 15.5 5.29069C15.5 5.42269 15.4739 5.55339 15.4231 5.67525C15.3723 5.7971 15.2978 5.90769 15.2041 6.00064L7.00145 14.2401Z" stroke="white" stroke-width="1.3" stroke-linecap="round" stroke-linejoin="round"/>
</svg>
