<svg width="16" height="18" viewBox="0 0 16 18" fill="none" xmlns="http://www.w3.org/2000/svg">
<path d="M2.75 5.25H13.25V14.5C13.25 15.6046 12.3546 16.5 11.25 16.5H4.75C3.64543 16.5 2.75 15.6046 2.75 14.5V5.25Z" stroke="#7B7B7B" stroke-width="1.3"/>
<path d="M6.5 8.25006V12.7501" stroke="#7B7B7B" stroke-width="1.3" stroke-linecap="round"/>
<path d="M9.5 8.25006V12.7501" stroke="#7B7B7B" stroke-width="1.3" stroke-linecap="round"/>
<path d="M5.75 2.5C5.75 1.94772 6.19772 1.5 6.75 1.5H9.25C9.80228 1.5 10.25 1.94772 10.25 2.5V3H5.75V2.5Z" stroke="#7B7B7B" stroke-width="1.3"/>
<path d="M1.25 4.12506C1.25 3.50374 1.75368 3.00006 2.375 3.00006H13.625C14.2463 3.00006 14.75 3.50374 14.75 4.12506C14.75 4.74638 14.2463 5.25006 13.625 5.25006H2.375C1.75368 5.25006 1.25 4.74638 1.25 4.12506Z" stroke="#7B7B7B" stroke-width="1.3"/>
</svg>
