<svg width="18" height="18" viewBox="0 0 18 18" fill="none" xmlns="http://www.w3.org/2000/svg">
<path d="M3.75 5.25H14.25V14.5C14.25 15.6046 13.3546 16.5 12.25 16.5H5.75C4.64543 16.5 3.75 15.6046 3.75 14.5V5.25Z" stroke="#7B7B7B" stroke-width="1.3"/>
<path d="M7.5 8.25012V12.7501" stroke="#7B7B7B" stroke-width="1.3" stroke-linecap="round"/>
<path d="M10.5 8.25012V12.7501" stroke="#7B7B7B" stroke-width="1.3" stroke-linecap="round"/>
<path d="M6.75 2.5C6.75 1.94772 7.19772 1.5 7.75 1.5H10.25C10.8023 1.5 11.25 1.94772 11.25 2.5V3H6.75V2.5Z" stroke="#7B7B7B" stroke-width="1.3"/>
<path d="M2.25 4.125C2.25 3.50368 2.75368 3 3.375 3H14.625C15.2463 3 15.75 3.50368 15.75 4.125C15.75 4.74632 15.2463 5.25 14.625 5.25H3.375C2.75368 5.25 2.25 4.74632 2.25 4.125Z" stroke="#7B7B7B" stroke-width="1.3"/>
</svg>
