<svg width="16" height="16" viewBox="0 0 16 16" fill="none" xmlns="http://www.w3.org/2000/svg">
<path d="M6.00145 13.2401L1.5 14.5L2.76041 10.0003L11.0031 1.80086C11.0962 1.70562 11.2075 1.62994 11.3303 1.57828C11.4531 1.52661 11.5851 1.5 11.7183 1.5C11.8515 1.5 11.9835 1.52661 12.1063 1.57828C12.2291 1.62994 12.3404 1.70562 12.4335 1.80086L14.2041 3.58074C14.2978 3.67369 14.3723 3.78429 14.4231 3.90614C14.4739 4.02799 14.5 4.15869 14.5 4.29069C14.5 4.42269 14.4739 4.55339 14.4231 4.67525C14.3723 4.7971 14.2978 4.90769 14.2041 5.00064L6.00145 13.2401Z" stroke="#7B7B7B" stroke-width="1.3" stroke-linecap="round" stroke-linejoin="round"/>
</svg>
