<svg width="16" height="18" viewBox="0 0 16 18" fill="none" xmlns="http://www.w3.org/2000/svg">
<path d="M13.25 8.25H2.75C1.92157 8.25 1.25 8.92156 1.25 9.74996V14.9998C1.25 15.8282 1.92157 16.4998 2.75 16.4998H13.25C14.0784 16.4998 14.75 15.8282 14.75 14.9998V9.74996C14.75 8.92156 14.0784 8.25 13.25 8.25Z" stroke="#7B7B7B" stroke-width="1.4" stroke-linecap="round" stroke-linejoin="round"/>
<path d="M4.25049 8.24983V5.24991C4.25049 4.25537 4.64558 3.30157 5.34884 2.59832C6.0521 1.89508 7.00593 1.5 8.00049 1.5C8.99505 1.5 9.94888 1.89508 10.6521 2.59832C11.3554 3.30157 11.7505 4.25537 11.7505 5.24991V8.24983" stroke="#7B7B7B" stroke-width="1.4" stroke-linecap="round" stroke-linejoin="round"/>
</svg>
