<svg width="18" height="19" viewBox="0 0 18 19" fill="none" xmlns="http://www.w3.org/2000/svg">
<path d="M16.4996 8.29295L10.207 2.00034C9.53991 1.33328 8.46018 1.33316 7.79296 2.00034L1.50036 8.29295C0.833231 8.96004 0.833199 10.0399 1.50036 10.7071L7.79296 16.9997C8.46009 17.6667 9.53982 17.6668 10.207 16.9997L16.4996 10.7071C17.1668 10.04 17.1668 8.96007 16.4996 8.29295ZM15.7926 9.99996L9.49997 16.2926C9.22361 16.5689 8.77641 16.5689 8.50002 16.2926L2.20742 9.99996C1.93112 9.72366 1.93108 9.2764 2.20742 9.00001L8.50002 2.70743C8.77638 2.4311 9.22358 2.43107 9.49997 2.70743L15.7926 9.00004C15.7926 9.00885 15.9997 9.17103 15.9997 9.50002C15.9997 9.68888 15.9261 9.8664 15.7926 9.99996Z" fill="#02C8DE" stroke="#02C8DE" stroke-width="0.3"/>
<path d="M12.6672 7.94753C12.628 7.88822 12.7488 8.01677 10.9099 6.14914C10.7161 5.95237 10.3996 5.9499 10.2028 6.14367C10.006 6.33741 10.0036 6.65396 10.1973 6.8507L11.0827 7.74985H6.24998C5.97383 7.74985 5.75 7.97371 5.75 8.24982V11.4997C5.75 11.7758 5.97383 11.9996 6.24998 11.9996C6.52612 11.9996 6.74995 11.7758 6.74995 11.4997V8.7498H11.0288L10.1435 9.64894C9.83146 9.96584 10.0602 10.4997 10.4997 10.4997C10.629 10.4997 10.7582 10.4499 10.856 10.3505L12.4968 8.68408C12.7753 8.52525 12.8119 8.16658 12.6672 7.94753Z" fill="#02C8DE" stroke="#02C8DE" stroke-width="0.3"/>
</svg>
