<svg width="20" height="18" viewBox="0 0 20 18" fill="none" xmlns="http://www.w3.org/2000/svg">
<path d="M18.7586 3.66344H17.4269V2.33174C17.4269 2.15515 17.3568 1.98579 17.2319 1.86092C17.107 1.73605 16.9376 1.66589 16.7611 1.66589C16.5845 1.66589 16.4151 1.73605 16.2902 1.86092C16.1654 1.98579 16.0952 2.15515 16.0952 2.33174V3.66344H14.7635C14.5869 3.66344 14.4175 3.73359 14.2927 3.85846C14.1678 3.98334 14.0977 4.1527 14.0977 4.32929C14.0977 4.50588 14.1678 4.67525 14.2927 4.80012C14.4175 4.92499 14.5869 4.99514 14.7635 4.99514H16.0952V6.32684C16.0952 6.50343 16.1654 6.67279 16.2902 6.79766C16.4151 6.92254 16.5845 6.99269 16.7611 6.99269C16.9376 6.99269 17.107 6.92254 17.2319 6.79766C17.3568 6.67279 17.4269 6.50343 17.4269 6.32684V4.99514H18.7586C18.9352 4.99514 19.1046 4.92499 19.2294 4.80012C19.3543 4.67525 19.4244 4.50588 19.4244 4.32929C19.4244 4.1527 19.3543 3.98334 19.2294 3.85846C19.1046 3.73359 18.9352 3.66344 18.7586 3.66344Z" fill="black" stroke="black" stroke-width="0.2"/>
<path d="M18.1589 8.99019C18 8.99023 17.8464 9.0471 17.7257 9.15053C17.6051 9.25395 17.5254 9.39712 17.5011 9.55416L17.3333 10.6282C17.2635 11.1002 17.0257 11.5311 16.6637 11.8419C16.3016 12.1526 15.8395 12.3222 15.3624 12.3194H9.27651C8.79938 12.3222 8.33731 12.1526 7.97522 11.8419C7.61313 11.5311 7.37535 11.1002 7.30559 10.6282L6.43999 4.9951H11.4339C11.6105 4.9951 11.7798 4.92494 11.9047 4.80007C12.0296 4.6752 12.0997 4.50584 12.0997 4.32925C12.0997 4.15265 12.0296 3.98329 11.9047 3.85842C11.7798 3.73355 11.6105 3.6634 11.4339 3.6634H6.18031L5.89532 2.51547C5.78769 2.08267 5.53832 1.69834 5.18693 1.42369C4.83555 1.14905 4.40235 0.9999 3.95637 1H1.66585C1.48926 1 1.31989 1.07015 1.19502 1.19502C1.07015 1.31989 1 1.48926 1 1.66585C1 1.84244 1.07015 2.0118 1.19502 2.13668C1.31989 2.26155 1.48926 2.3317 1.66585 2.3317H3.95637C4.10507 2.33181 4.24946 2.3817 4.36652 2.47342C4.48357 2.56513 4.56656 2.69339 4.60224 2.83774L5.98721 10.8279C6.05855 11.3083 6.23522 11.7669 6.50459 12.1709C6.77396 12.575 7.12934 12.9145 7.5453 13.1651C7.30553 13.444 7.13663 13.7767 7.05294 14.1349C6.96925 14.4931 6.97323 14.8662 7.06455 15.2225C7.20451 15.7728 7.54055 16.2531 8.00955 16.5731C8.47855 16.8931 9.04826 17.0309 9.61168 16.9606C10.1751 16.8903 10.6935 16.6167 11.0695 16.1913C11.4454 15.7658 11.6531 15.2177 11.6536 14.6499C11.6523 14.3037 11.5726 13.9622 11.4205 13.6511H13.2183C12.9873 14.1216 12.9256 14.6573 13.0439 15.1679C13.1195 15.5135 13.2729 15.8374 13.4923 16.1149C13.7117 16.3924 13.9915 16.6164 14.3103 16.7697C14.6291 16.9231 14.9787 17.0018 15.3325 17C15.6863 16.9981 16.035 16.9158 16.3522 16.7592C16.6694 16.6025 16.9468 16.3757 17.1634 16.0959C17.3799 15.8162 17.5299 15.4908 17.602 15.1444C17.6741 14.798 17.6664 14.4398 17.5794 14.0968C17.4925 13.7539 17.3286 13.4353 17.1002 13.1651C17.5144 12.9131 17.8681 12.5731 18.1362 12.1692C18.4043 11.7654 18.5803 11.3074 18.6517 10.8279L18.8148 9.75592C18.8291 9.66132 18.8229 9.56474 18.7966 9.47276C18.7703 9.38078 18.7244 9.29555 18.6622 9.22289C18.5999 9.15022 18.5228 9.09182 18.4359 9.05167C18.3491 9.01151 18.2546 8.99054 18.1589 8.99019ZM9.32312 15.6487C9.12558 15.6487 8.93247 15.5901 8.76823 15.4804C8.60398 15.3706 8.47596 15.2146 8.40037 15.0321C8.32477 14.8496 8.30499 14.6488 8.34353 14.4551C8.38207 14.2613 8.47719 14.0834 8.61688 13.9437C8.75656 13.804 8.93452 13.7089 9.12826 13.6703C9.32201 13.6318 9.52283 13.6516 9.70533 13.7272C9.88783 13.8028 10.0438 13.9308 10.1536 14.095C10.2633 14.2593 10.3219 14.4524 10.3219 14.6499C10.3219 14.9148 10.2167 15.1688 10.0294 15.3561C9.84205 15.5435 9.58801 15.6487 9.32312 15.6487ZM15.3158 15.6487C15.1182 15.6487 14.9251 15.5901 14.7609 15.4804C14.5966 15.3706 14.4686 15.2146 14.393 15.0321C14.3174 14.8496 14.2976 14.6488 14.3362 14.4551C14.3747 14.2613 14.4698 14.0834 14.6095 13.9437C14.7492 13.804 14.9272 13.7089 15.1209 13.6703C15.3147 13.6318 15.5155 13.6516 15.698 13.7272C15.8805 13.8028 16.0365 13.9308 16.1462 14.095C16.256 14.2593 16.3145 14.4524 16.3145 14.6499C16.3145 14.9148 16.2093 15.1688 16.022 15.3561C15.8347 15.5435 15.5806 15.6487 15.3158 15.6487Z" fill="black" stroke="black" stroke-width="0.2"/>
</svg>
