<svg width="18" height="18" viewBox="0 0 18 18" fill="none" xmlns="http://www.w3.org/2000/svg">
<path fill-rule="evenodd" clip-rule="evenodd" d="M3.13333 1.00012C1.95513 1.00012 1 1.95525 1 3.13346V6.33346C1 7.51167 1.95513 8.46679 3.13333 8.46679H6.33333C7.51155 8.46679 8.46667 7.51167 8.46667 6.33346V3.13346C8.46667 1.95525 7.51155 1.00012 6.33333 1.00012H3.13333ZM2.06667 3.13346C2.06667 2.54435 2.54423 2.06679 3.13333 2.06679H6.33333C6.92243 2.06679 7.4 2.54435 7.4 3.13346V6.33346C7.4 6.92255 6.92243 7.40012 6.33333 7.40012H3.13333C2.54423 7.40012 2.06667 6.92255 2.06667 6.33346V3.13346Z" fill="black" stroke="black" stroke-width="0.3"/>
<path fill-rule="evenodd" clip-rule="evenodd" d="M13.7885 1.4152C13.7333 1.17241 13.5175 1.00012 13.2685 1.00012C13.0195 1.00012 12.8036 1.17241 12.7484 1.4152L12.4533 2.71291C12.3169 3.31314 11.8482 3.78183 11.2479 3.91831L9.95022 4.2134C9.70745 4.2686 9.53516 4.48447 9.53516 4.73346C9.53516 4.98244 9.70745 5.19831 9.95022 5.25351L11.2479 5.5486C11.8482 5.68508 12.3169 6.15378 12.4533 6.75402L12.7484 8.05172C12.8036 8.2945 13.0195 8.46679 13.2685 8.46679C13.5175 8.46679 13.7333 8.2945 13.7885 8.05172L14.0836 6.75402C14.2201 6.15378 14.6888 5.68508 15.289 5.5486L16.5868 5.25351C16.8295 5.19831 17.0018 4.98244 17.0018 4.73346C17.0018 4.48447 16.8295 4.2686 16.5868 4.2134L15.289 3.91831C14.6888 3.78183 14.2201 3.31314 14.0836 2.71291L13.7885 1.4152ZM12.1054 4.73346C12.6056 4.47818 13.0132 4.07058 13.2685 3.57036C13.5238 4.07058 13.9314 4.47818 14.4316 4.73346C13.9314 4.98874 13.5238 5.39634 13.2685 5.89655C13.0132 5.39634 12.6056 4.98874 12.1054 4.73346Z" fill="black" stroke="black" stroke-width="0.3"/>
<path fill-rule="evenodd" clip-rule="evenodd" d="M1 11.6668C1 10.4886 1.95513 9.53345 3.13333 9.53345H6.33333C7.51155 9.53345 8.46667 10.4886 8.46667 11.6668V14.8668C8.46667 16.045 7.51155 17.0001 6.33333 17.0001H3.13333C1.95513 17.0001 1 16.045 1 14.8668V11.6668ZM3.13333 10.6001C2.54423 10.6001 2.06667 11.0777 2.06667 11.6668V14.8668C2.06667 15.4559 2.54423 15.9334 3.13333 15.9334H6.33333C6.92243 15.9334 7.4 15.4559 7.4 14.8668V11.6668C7.4 11.0777 6.92243 10.6001 6.33333 10.6001H3.13333Z" fill="black" stroke="black" stroke-width="0.3"/>
<path fill-rule="evenodd" clip-rule="evenodd" d="M11.6685 9.53345C10.4903 9.53345 9.53516 10.4886 9.53516 11.6668V14.8668C9.53516 16.045 10.4903 17.0001 11.6685 17.0001H14.8685C16.0467 17.0001 17.0018 16.045 17.0018 14.8668V11.6668C17.0018 10.4886 16.0467 9.53345 14.8685 9.53345H11.6685ZM10.6018 11.6668C10.6018 11.0777 11.0794 10.6001 11.6685 10.6001H14.8685C15.4576 10.6001 15.9352 11.0777 15.9352 11.6668V14.8668C15.9352 15.4559 15.4576 15.9334 14.8685 15.9334H11.6685C11.0794 15.9334 10.6018 15.4559 10.6018 14.8668V11.6668Z" fill="black" stroke="black" stroke-width="0.3"/>
</svg>
