<svg width="16" height="18" viewBox="0 0 16 18" fill="none" xmlns="http://www.w3.org/2000/svg">
<path d="M14.9365 9.20737C14.8721 9.07565 14.8721 8.92459 14.9365 8.7929L15.5333 7.57214C15.8655 6.89243 15.6023 6.08228 14.934 5.72769L13.7337 5.09082C13.6042 5.02213 13.5154 4.89989 13.49 4.75554L13.2553 3.41715C13.1246 2.67197 12.4353 2.17123 11.6863 2.2772L10.3409 2.46751C10.1957 2.48801 10.0521 2.44132 9.94676 2.33942L8.97018 1.39468C8.42641 0.86862 7.57454 0.868588 7.0308 1.39468L6.05418 2.33951C5.94881 2.44145 5.80522 2.48804 5.66003 2.4676L4.31464 2.27729C3.56543 2.17126 2.87638 2.67207 2.74566 3.41725L2.51091 4.75557C2.48557 4.89995 2.39679 5.02217 2.26732 5.09088L1.06702 5.72775C0.398718 6.08231 0.135471 6.89252 0.467717 7.57223L1.06443 8.79297C1.1288 8.92468 1.1288 9.07574 1.06443 9.20743L0.467686 10.4282C0.13544 11.1079 0.398687 11.918 1.06699 12.2726L2.26729 12.9095C2.39679 12.9782 2.48557 13.1004 2.51091 13.2448L2.74566 14.5831C2.86466 15.2615 3.44634 15.7373 4.11486 15.7372C4.18071 15.7372 4.24752 15.7326 4.31467 15.7231L5.66006 15.5328C5.80516 15.5122 5.94884 15.5589 6.05421 15.6609L7.0308 16.6056C7.30273 16.8687 7.65154 17.0002 8.00047 17.0001C8.34931 17.0001 8.69834 16.8686 8.97015 16.6056L9.94676 15.6609C10.0521 15.5589 10.1958 15.5124 10.3409 15.5328L11.6863 15.7231C12.4356 15.8291 13.1246 15.3283 13.2553 14.5831L13.4901 13.2448C13.5154 13.1004 13.6042 12.9782 13.7337 12.9095L14.934 12.2726C15.6023 11.9181 15.8655 11.1078 15.5333 10.4281L14.9365 9.20737ZM14.5014 11.4574L13.3011 12.0943C12.9184 12.2974 12.656 12.6585 12.5811 13.0853L12.3464 14.4236C12.3022 14.6758 12.0691 14.8451 11.8156 14.8093L10.4702 14.619C10.0411 14.5582 9.61655 14.6963 9.30515 14.9975L8.32853 15.9423C8.1446 16.1202 7.85638 16.1202 7.67238 15.9423L6.6958 14.9975C6.43262 14.7429 6.08856 14.605 5.72938 14.605C5.66356 14.605 5.59722 14.6096 5.53078 14.619L4.18539 14.8093C3.93208 14.8451 3.6988 14.6757 3.65456 14.4236L3.41978 13.0852C3.3449 12.6585 3.08247 12.2973 2.69975 12.0942L1.49946 11.4574C1.27333 11.3374 1.18427 11.0633 1.29668 10.8333L1.89342 9.61258C2.08367 9.22334 2.08367 8.7769 1.89342 8.38766L1.29668 7.16689C1.18427 6.93692 1.27333 6.66283 1.49946 6.54287L2.69975 5.906C3.08244 5.70291 3.3449 5.34172 3.41975 4.91498L3.65449 3.57662C3.69874 3.3245 3.9318 3.15512 4.18533 3.19094L5.53072 3.38125C5.95962 3.44196 6.38434 3.30394 6.69574 3.00272L7.67235 2.05798C7.85629 1.88005 8.1445 1.88005 8.3285 2.05798L9.30508 3.00272C9.61649 3.30397 10.0411 3.44196 10.4701 3.38125L11.8155 3.19094C12.0688 3.15509 12.3021 3.3245 12.3463 3.57662L12.5811 4.91501C12.656 5.34176 12.9184 5.70297 13.3011 5.906L14.5014 6.54287C14.7275 6.66283 14.8166 6.93692 14.7042 7.16689L14.1074 8.38763C13.9172 8.77684 13.9172 9.22334 14.1074 9.61255L14.7042 10.8333C14.8166 11.0633 14.7276 11.3374 14.5014 11.4574Z" fill="black" stroke="black" stroke-width="0.35"/>
<path d="M11.374 5.62879C11.1938 5.44861 10.9016 5.44861 10.7214 5.62879L4.63123 11.719C4.45105 11.8992 4.45105 12.1914 4.63123 12.3716C4.72133 12.4616 4.83942 12.5067 4.95748 12.5067C5.07554 12.5067 5.19366 12.4617 5.28373 12.3716L11.3739 6.28135C11.5542 6.10113 11.5542 5.80901 11.374 5.62879Z" fill="black" stroke="black" stroke-width="0.35"/>
<path d="M6.15667 4.84753C5.2238 4.84753 4.46484 5.60649 4.46484 6.53936C4.46484 7.47222 5.2238 8.23118 6.15667 8.23118C7.08953 8.23118 7.84849 7.47222 7.84849 6.53936C7.84849 5.60649 7.08953 4.84753 6.15667 4.84753ZM6.15667 7.30835C5.73264 7.30835 5.38768 6.96338 5.38768 6.53933C5.38768 6.1153 5.73264 5.77034 6.15667 5.77034C6.58069 5.77034 6.92569 6.1153 6.92569 6.53933C6.92566 6.96338 6.58069 7.30835 6.15667 7.30835Z" fill="black" stroke="black" stroke-width="0.35"/>
<path d="M9.84417 9.76917C8.9113 9.76917 8.15234 10.5281 8.15234 11.461C8.15234 12.3939 8.9113 13.1528 9.84417 13.1528C10.777 13.1528 11.536 12.3939 11.536 11.461C11.536 10.5281 10.777 9.76917 9.84417 9.76917ZM9.84417 12.23C9.42014 12.23 9.07515 11.885 9.07515 11.461C9.07515 11.037 9.42011 10.692 9.84417 10.692C10.2682 10.692 10.6132 11.037 10.6132 11.461C10.6132 11.885 10.2682 12.23 9.84417 12.23Z" fill="black" stroke="black" stroke-width="0.35"/>
</svg>
