<svg width="16" height="18" viewBox="0 0 16 18" fill="none" xmlns="http://www.w3.org/2000/svg">
<path d="M15.5983 5.89699C15.5733 4.86199 14.9889 3.82293 14.0099 3.30949C13.5067 3.04355 12.9855 2.78762 12.4583 2.54511L10.4936 1.71324C9.9936 1.51793 9.49642 1.33824 9.0111 1.16855C8.35671 0.943979 7.64612 0.943979 6.99172 1.16855C5.37235 1.72668 3.60391 2.45605 1.99172 3.30949C1.01297 3.82293 0.429219 4.86199 0.403281 5.89699C0.339531 7.96575 0.339531 10.0345 0.403281 12.1032C0.428281 13.1383 1.01297 14.1773 1.99172 14.6908C3.60297 15.5439 5.37141 16.2733 6.99172 16.8317C7.64612 17.0563 8.35671 17.0563 9.0111 16.8317C10.6305 16.2733 12.3989 15.5439 14.0111 14.6908C14.9899 14.1773 15.5736 13.1383 15.5995 12.1032C15.6625 10.0341 15.662 7.96533 15.5983 5.89699ZM12.2733 3.76949C10.617 4.35449 8.20391 5.25137 6.48641 6.01949C6.24983 6.12407 6.04716 6.29263 5.90123 6.5062C5.7553 6.71976 5.67192 6.96984 5.66047 7.22825C5.62235 8.41575 5.61047 9.01637 5.6261 10.2282C5.62699 10.2506 5.62334 10.2728 5.6154 10.2937C5.60745 10.3145 5.59535 10.3336 5.57985 10.3496C5.56434 10.3657 5.54574 10.3784 5.52517 10.3871C5.5046 10.3958 5.48249 10.4002 5.46016 10.4001C5.43396 10.4 5.40815 10.3938 5.38478 10.382C5.3614 10.3701 5.3411 10.353 5.32547 10.332C5.06547 9.9995 4.81151 9.66991 4.5636 9.34325C4.55171 9.32734 4.5363 9.3144 4.51857 9.30545C4.50083 9.29651 4.48127 9.29179 4.46141 9.29168C4.4394 9.29191 4.41784 9.29795 4.39891 9.30918C4.20578 9.42418 4.01599 9.53762 3.82953 9.6495C3.80688 9.66311 3.78097 9.67035 3.75453 9.67043C3.7129 9.66838 3.6736 9.65058 3.64459 9.62065C3.61558 9.59071 3.59903 9.55087 3.59828 9.50918L3.5961 6.24074C3.59592 6.11078 3.63418 5.98366 3.70608 5.8754C3.77798 5.76713 3.8803 5.68255 4.00016 5.63231L10.3761 2.95262L11.9799 3.63168C12.0774 3.6773 12.1752 3.72324 12.2733 3.76949ZM14.4114 12.0667C14.4116 12.0694 14.4116 12.0721 14.4114 12.0748C14.4006 12.3947 14.3085 12.7067 14.1436 12.9811C13.9797 13.2584 13.7427 13.4854 13.4586 13.6373L13.4545 13.6395C11.6552 14.5933 9.83517 15.2914 8.6261 15.7089C8.22173 15.8476 7.78266 15.8476 7.37829 15.7089C6.16766 15.2914 4.34704 14.5942 2.55016 13.642L2.5461 13.6398C2.26177 13.4882 2.02476 13.2611 1.8611 12.9836C1.69605 12.7087 1.60377 12.3962 1.59297 12.0757V12.0679C1.53047 10.0329 1.53047 7.9695 1.59297 5.93481V5.92699C1.60403 5.60706 1.6963 5.2952 1.8611 5.02074C2.02465 4.7431 2.2617 4.516 2.5461 4.36449L2.55016 4.3623C4.34735 3.40574 6.16766 2.70887 7.37829 2.29136C7.78208 2.15303 8.22043 2.15303 8.62423 2.29136L8.76579 2.34074L3.53672 4.53793C3.20095 4.67854 2.91432 4.9154 2.71295 5.21865C2.51158 5.5219 2.40448 5.87797 2.40516 6.24199L2.40735 9.50637C2.4111 10.2517 3.01485 10.8582 3.75328 10.8582C3.89737 10.8583 4.0405 10.8349 4.17704 10.7889C4.24829 10.8807 4.31964 10.9723 4.3911 11.0636C4.56512 11.2878 4.80522 11.4516 5.07746 11.5319C5.34969 11.6122 5.64028 11.6049 5.90812 11.511C6.17596 11.417 6.4075 11.2413 6.56999 11.0086C6.73248 10.7759 6.8177 10.498 6.8136 10.2142C6.79829 9.01856 6.80985 8.44231 6.84766 7.26762C6.85192 7.23209 6.86553 7.19832 6.88711 7.16978C6.90869 7.14123 6.93746 7.11891 6.97048 7.10512H6.97204C8.58673 6.38231 10.3295 5.69262 12.152 5.05512C12.6664 4.87512 13.1911 4.69824 13.7145 4.52824C13.8863 4.66431 14.0318 4.83058 14.1439 5.01887C14.3088 5.29328 14.4009 5.60518 14.4117 5.92512C14.4119 5.92772 14.4119 5.93033 14.4117 5.93293C14.4742 7.96825 14.4742 10.0307 14.4114 12.0667Z" fill="black" stroke="black" stroke-width="0.2"/>
</svg>
