<svg width="28" height="28" viewBox="0 0 28 28" fill="none" xmlns="http://www.w3.org/2000/svg">
<path d="M27.8871 10.4712C27.6408 9.74217 27.0256 9.21916 26.2788 9.10516L19.0542 8.00214L15.8164 1.16802C15.4787 0.447008 14.7821 0 14 0C13.2179 0 12.5213 0.448008 12.1836 1.16602L8.94475 8.00314L1.72024 9.10616C0.974365 9.22016 0.358165 9.74417 0.111886 10.4722C-0.141429 11.2232 0.0425263 12.0402 0.591376 12.6022L5.84868 17.9843L4.60622 25.5965C4.47554 26.3985 4.80124 27.1805 5.45764 27.6395C5.79942 27.8785 6.19548 27.9995 6.59354 27.9995C6.92225 27.9995 7.25096 27.9165 7.55353 27.7505L13.9829 24.1824L20.4475 27.7505C21.1149 28.1195 21.9181 28.0765 22.5424 27.6395C23.1988 27.1815 23.5245 26.3985 23.3938 25.5975L22.1513 17.9853L27.4086 12.6032C27.9575 12.0412 28.1414 11.2252 27.8881 10.4732L27.8871 10.4712Z" fill="#FFCB2B"/>
</svg>
