<svg width="28" height="28" viewBox="0 0 28 28" fill="none" xmlns="http://www.w3.org/2000/svg">
<path d="M14 0C6.30547 0 0 6.30547 0 14C0 21.6945 6.30547 28 14 28C21.6945 28 28 21.6945 28 14C28 6.30547 21.6945 0 14 0ZM3.33594 14C3.33594 8.12651 8.12651 3.33594 14 3.33594C16.2148 3.33594 18.3477 4.02495 20.1687 5.32104L14 11.4898L5.32115 20.1687C4.02495 18.3476 3.33594 16.2148 3.33594 14ZM14 24.6641C11.7852 24.6641 9.65229 23.9749 7.83125 22.6789L22.6789 7.8312C23.9751 9.65229 24.6641 11.7851 24.6641 14C24.6641 19.8734 19.8735 24.6641 14 24.6641Z" fill="#FF3636"/>
<path d="M28 14C28 21.6945 21.6945 28 14 28V24.6641C19.8735 24.6641 24.6641 19.8734 24.6641 14C24.6641 11.7851 23.9751 9.65229 22.6789 7.83125L14 16.5101V11.4898L20.1687 5.32104C18.3477 4.02495 16.2148 3.33594 14 3.33594V0C21.6945 0 28 6.30547 28 14Z" fill="#F40000"/>
</svg>
