<svg width="28" height="25" viewBox="0 0 28 25" fill="none" xmlns="http://www.w3.org/2000/svg">
<path d="M26.25 5.25H1.75C0.78575 5.25 0 6.03575 0 7V22.75C0 23.716 0.78575 24.5 1.75 24.5H26.25C27.216 24.5 28 23.716 28 22.75V7C28 6.03575 27.216 5.25 26.25 5.25Z" fill="#02C8DE"/>
<path d="M28 8.75H0V14H28V8.75Z" fill="black"/>
<path d="M7.875 19.25H4.375C3.892 19.25 3.5 18.858 3.5 18.375C3.5 17.892 3.892 17.5 4.375 17.5H7.875C8.358 17.5 8.75 17.892 8.75 18.375C8.75 18.858 8.358 19.25 7.875 19.25Z" fill="white"/>
<path d="M28 13.9055V7C28 6.03575 27.216 5.25 26.25 5.25H12.25V7C12.25 12.481 14.336 15.8182 19.698 18.9052C20.0935 19.131 20.545 19.25 21 19.25C21.455 19.25 21.9065 19.131 22.3072 18.9017C24.9602 17.3775 26.8083 15.7867 28 13.9055Z" fill="white"/>
<path d="M27.4697 2.69588L21.3447 0.070875C21.1225 -0.023625 20.8758 -0.023625 20.6535 0.070875L14.5285 2.69588C14.2083 2.83238 14 3.14913 14 3.49913V6.99913C14 11.8134 15.7798 14.6274 20.5643 17.3836C20.699 17.4606 20.8495 17.4991 21 17.4991C21.1505 17.4991 21.301 17.4606 21.4357 17.3836C26.2202 14.6344 28 11.8204 28 6.99913V3.49913C28 3.14913 27.7917 2.83238 27.4697 2.69588Z" fill="#00A78E"/>
<path d="M20.1248 11.375C20.1126 11.375 20.0986 11.375 20.0881 11.375C19.8098 11.3628 19.5526 11.2193 19.3968 10.9865L17.6468 8.36153C17.3791 7.95903 17.4876 7.41653 17.8901 7.14878C18.2891 6.88278 18.8333 6.98778 19.1028 7.39203L20.1896 9.02128L22.9406 5.58078C23.2433 5.20453 23.7946 5.14503 24.1708 5.44428C24.5488 5.74703 24.6083 6.29653 24.3073 6.67453L20.8073 11.0495C20.6411 11.2543 20.3891 11.375 20.1248 11.375Z" fill="white"/>
</svg>
