<svg width="27" height="28" viewBox="0 0 27 28" fill="none" xmlns="http://www.w3.org/2000/svg">
<path d="M24.8363 2.35822H22.0687V1.1223C22.0687 0.492996 21.4061 0 20.5609 0C19.7145 0 19.0515 0.492996 19.0515 1.1223V2.35822H14.8424V1.1223C14.8424 0.492996 14.1792 0 13.3329 0C12.4866 0 11.8234 0.492996 11.8234 1.1223V2.35822H7.61583V1.1223C7.61583 0.492996 6.95287 0 6.10636 0C5.25985 0 4.5969 0.492996 4.5969 1.1223V2.35822H1.83106C1.34561 2.35876 0.880189 2.55183 0.536915 2.8951C0.193642 3.23836 0.000548984 3.70377 0 4.18923V26.1689C0.000564172 26.6544 0.19366 27.1198 0.536929 27.4631C0.880197 27.8063 1.34561 27.9994 1.83106 28H24.8363C25.3216 27.9993 25.7868 27.8061 26.1298 27.4628C26.4727 27.1195 26.6655 26.6542 26.6658 26.1689V4.18923C26.6655 3.70397 26.4727 3.23865 26.1297 2.89538C25.7868 2.55211 25.3216 2.35892 24.8363 2.35822ZM19.9734 1.12922C20.0016 1.06872 20.2136 0.921811 20.561 0.921811C20.9074 0.921811 21.1189 1.06895 21.147 1.12922V2.35822H19.9734V1.12922ZM12.7452 1.12974C12.774 1.06907 12.9863 0.921811 13.3329 0.921811C13.6795 0.921811 13.8917 1.06907 13.9206 1.12974V2.35822H12.7452V1.12974ZM5.51882 1.12974C5.54763 1.06907 5.75982 0.921811 6.10648 0.921811C6.45314 0.921811 6.66533 1.06907 6.69413 1.12974V2.35822H5.51882V1.12974Z" fill="#EAE8E8"/>
<path d="M12.3025 11.0703V13.1394C12.3025 13.2616 12.254 13.3789 12.1675 13.4653C12.0811 13.5517 11.9639 13.6003 11.8416 13.6003H9.49678C9.37454 13.6003 9.2573 13.5517 9.17087 13.4653C9.08443 13.3789 9.03587 13.2616 9.03587 13.1394V11.0703C9.03587 10.948 9.08443 10.8308 9.17087 10.7444C9.2573 10.6579 9.37454 10.6094 9.49678 10.6094H11.8416C11.9639 10.6094 12.0811 10.6579 12.1675 10.7444C12.254 10.8308 12.3025 10.948 12.3025 11.0703ZM17.1688 10.6094H14.8239C14.7017 10.6094 14.5844 10.6579 14.498 10.7444C14.4116 10.8308 14.363 10.948 14.363 11.0703V13.1394C14.363 13.2616 14.4116 13.3789 14.498 13.4653C14.5844 13.5517 14.7017 13.6003 14.8239 13.6003H17.1688C17.291 13.6003 17.4082 13.5517 17.4947 13.4653C17.5811 13.3789 17.6297 13.2616 17.6297 13.1394V11.0703C17.6297 10.948 17.5811 10.8308 17.4947 10.7444C17.4082 10.6579 17.291 10.6094 17.1688 10.6094ZM6.5161 15.6719H4.1694C4.04716 15.6719 3.92993 15.7205 3.84349 15.8069C3.75706 15.8933 3.7085 16.0106 3.7085 16.1328V18.2019C3.7085 18.3242 3.75706 18.4414 3.84349 18.5278C3.92993 18.6143 4.04716 18.6628 4.1694 18.6628H6.51616C6.6384 18.6628 6.75563 18.6143 6.84207 18.5278C6.9285 18.4414 6.97706 18.3242 6.97706 18.2019V16.1328C6.97706 16.0106 6.9285 15.8933 6.84207 15.8069C6.75563 15.7205 6.63834 15.6719 6.5161 15.6719ZM11.8416 15.6719H9.49672C9.37448 15.6719 9.25725 15.7205 9.17081 15.8069C9.08437 15.8933 9.03581 16.0106 9.03581 16.1328V18.2019C9.03581 18.3242 9.08437 18.4414 9.17081 18.5278C9.25725 18.6143 9.37448 18.6628 9.49672 18.6628H11.8416C11.9638 18.6628 12.081 18.6143 12.1675 18.5278C12.2539 18.4414 12.3025 18.3242 12.3025 18.2019V16.1328C12.3025 16.0106 12.2539 15.8934 12.1675 15.8069C12.0811 15.7205 11.9639 15.6719 11.8416 15.6719H11.8416ZM17.1687 15.6719H14.8239C14.7016 15.6719 14.5844 15.7205 14.498 15.8069C14.4115 15.8933 14.363 16.0106 14.363 16.1328V18.2019C14.363 18.3242 14.4115 18.4414 14.498 18.5278C14.5844 18.6143 14.7016 18.6628 14.8239 18.6628H17.1687C17.291 18.6628 17.4082 18.6143 17.4946 18.5278C17.5811 18.4414 17.6296 18.3242 17.6296 18.2019V16.1328C17.6296 16.0106 17.5811 15.8934 17.4946 15.8069C17.4082 15.7205 17.291 15.6719 17.1688 15.6719H17.1687ZM6.51604 20.7361H4.1694C4.04716 20.7361 3.92993 20.7847 3.84349 20.8711C3.75706 20.9575 3.7085 21.0748 3.7085 21.197V23.2645C3.7085 23.3867 3.75706 23.5039 3.84349 23.5904C3.92993 23.6768 4.04716 23.7254 4.1694 23.7254H6.51616C6.6384 23.7254 6.75563 23.6768 6.84207 23.5904C6.9285 23.5039 6.97706 23.3867 6.97706 23.2645V21.1971C6.97706 21.0748 6.9285 20.9576 6.84207 20.8712C6.75563 20.7847 6.6384 20.7362 6.51616 20.7362L6.51604 20.7361ZM11.8415 20.7361H9.49666C9.37442 20.7361 9.25719 20.7847 9.17075 20.8711C9.08431 20.9575 9.03576 21.0748 9.03576 21.197V23.2645C9.03576 23.3867 9.08431 23.5039 9.17075 23.5904C9.25719 23.6768 9.37442 23.7254 9.49666 23.7254H11.8415C11.9638 23.7254 12.081 23.6768 12.1674 23.5904C12.2539 23.5039 12.3024 23.3867 12.3024 23.2645V21.1971C12.3024 21.0748 12.2539 20.9576 12.1675 20.8712C12.0811 20.7848 11.9639 20.7362 11.8416 20.7362L11.8415 20.7361ZM6.51616 10.6094H4.1694C4.04716 10.6094 3.92993 10.6579 3.84349 10.7444C3.75706 10.8308 3.7085 10.948 3.7085 11.0703V13.1394C3.7085 13.2616 3.75706 13.3789 3.84349 13.4653C3.92993 13.5517 4.04716 13.6003 4.1694 13.6003H6.51616C6.6384 13.6003 6.75563 13.5517 6.84207 13.4653C6.9285 13.3789 6.97706 13.2616 6.97706 13.1394V11.0703C6.97706 10.948 6.9285 10.8308 6.84207 10.7444C6.75563 10.6579 6.6384 10.6094 6.51616 10.6094ZM22.4959 15.6719H20.1511C20.0288 15.6719 19.9116 15.7205 19.8252 15.8069C19.7387 15.8933 19.6902 16.0106 19.6902 16.1328V18.2019C19.6902 18.3242 19.7387 18.4414 19.8252 18.5278C19.9116 18.6143 20.0288 18.6628 20.1511 18.6628H22.4959C22.6182 18.6628 22.7354 18.6143 22.8218 18.5278C22.9083 18.4414 22.9568 18.3242 22.9568 18.2019V16.1328C22.9568 16.0106 22.9083 15.8933 22.8218 15.8069C22.7354 15.7205 22.6182 15.6719 22.4959 15.6719ZM17.1688 20.7361H14.8239C14.7017 20.7361 14.5844 20.7847 14.498 20.8711C14.4116 20.9575 14.363 21.0748 14.363 21.197V23.2645C14.363 23.3867 14.4116 23.5039 14.498 23.5904C14.5844 23.6768 14.7017 23.7254 14.8239 23.7254H17.1688C17.291 23.7254 17.4082 23.6768 17.4947 23.5904C17.5811 23.5039 17.6297 23.3867 17.6297 23.2645V21.1971C17.6297 21.0748 17.5811 20.9576 17.4947 20.8712C17.4082 20.7847 17.291 20.7361 17.1688 20.7361Z" fill="#02C8DE"/>
<path d="M6.51656 10.6094H5.94043C6.06267 10.6094 6.1799 10.6579 6.26634 10.7444C6.35278 10.8308 6.40134 10.948 6.40134 11.0703V13.1394C6.40134 13.2616 6.35278 13.3789 6.26634 13.4653C6.1799 13.5517 6.06267 13.6003 5.94043 13.6003H6.51656C6.6388 13.6003 6.75603 13.5517 6.84247 13.4653C6.92891 13.3789 6.97747 13.2616 6.97747 13.1394V11.0703C6.97747 10.948 6.92891 10.8308 6.84247 10.7444C6.75603 10.6579 6.6388 10.6094 6.51656 10.6094Z" fill="#008493"/>
<path d="M11.8422 20.7363H11.2661C11.3884 20.7363 11.5056 20.7849 11.592 20.8713C11.6785 20.9578 11.727 21.075 11.727 21.1972V23.2647C11.727 23.3869 11.6785 23.5042 11.592 23.5906C11.5056 23.677 11.3884 23.7256 11.2661 23.7256H11.8422C11.9645 23.7256 12.0817 23.677 12.1682 23.5906C12.2546 23.5042 12.3032 23.3869 12.3032 23.2647V21.1972C12.3032 21.075 12.2546 20.9578 12.1682 20.8713C12.0817 20.7849 11.9645 20.7363 11.8422 20.7363Z" fill="#008493"/>
<path d="M11.8422 15.6719H11.2661C11.3884 15.6719 11.5056 15.7204 11.592 15.8069C11.6785 15.8933 11.727 16.0105 11.727 16.1328V18.2019C11.727 18.3241 11.6785 18.4414 11.592 18.5278C11.5056 18.6142 11.3884 18.6628 11.2661 18.6628H11.8422C11.9645 18.6628 12.0817 18.6142 12.1682 18.5278C12.2546 18.4414 12.3032 18.3241 12.3032 18.2019V16.1328C12.3032 16.0105 12.2546 15.8933 12.1682 15.8069C12.0817 15.7204 11.9645 15.6719 11.8422 15.6719Z" fill="#008493"/>
<path d="M6.51656 20.7363H5.94043C6.06267 20.7363 6.1799 20.7849 6.26634 20.8713C6.35278 20.9578 6.40134 21.075 6.40134 21.1972V23.2647C6.40134 23.3869 6.35278 23.5042 6.26634 23.5906C6.1799 23.677 6.06267 23.7256 5.94043 23.7256H6.51656C6.6388 23.7256 6.75603 23.677 6.84247 23.5906C6.92891 23.5042 6.97747 23.3869 6.97747 23.2647V21.1972C6.97747 21.075 6.92891 20.9578 6.84247 20.8713C6.75603 20.7849 6.6388 20.7363 6.51656 20.7363Z" fill="#008493"/>
<path d="M6.51656 15.6719H5.94043C6.06267 15.6719 6.1799 15.7204 6.26634 15.8069C6.35278 15.8933 6.40134 16.0105 6.40134 16.1328V18.2019C6.40134 18.3241 6.35278 18.4414 6.26634 18.5278C6.1799 18.6142 6.06267 18.6628 5.94043 18.6628H6.51656C6.6388 18.6628 6.75603 18.6142 6.84247 18.5278C6.92891 18.4414 6.97747 18.3241 6.97747 18.2019V16.1328C6.97747 16.0105 6.92891 15.8933 6.84247 15.8069C6.75603 15.7204 6.6388 15.6719 6.51656 15.6719Z" fill="#008493"/>
<path d="M17.1694 20.7363H16.5933C16.7155 20.7363 16.8327 20.7849 16.9192 20.8713C17.0056 20.9578 17.0542 21.075 17.0542 21.1972V23.2647C17.0542 23.3869 17.0056 23.5042 16.9192 23.5906C16.8327 23.677 16.7155 23.7256 16.5933 23.7256H17.1694C17.2916 23.7256 17.4089 23.677 17.4953 23.5906C17.5817 23.5042 17.6303 23.3869 17.6303 23.2647V21.1972C17.6303 21.075 17.5817 20.9578 17.4953 20.8713C17.4089 20.7849 17.2916 20.7363 17.1694 20.7363Z" fill="#008493"/>
<path d="M17.1694 10.6094H16.5933C16.7155 10.6094 16.8327 10.6579 16.9192 10.7444C17.0056 10.8308 17.0542 10.948 17.0542 11.0703V13.1394C17.0542 13.2616 17.0056 13.3789 16.9192 13.4653C16.8327 13.5517 16.7155 13.6003 16.5933 13.6003H17.1694C17.2916 13.6003 17.4089 13.5517 17.4953 13.4653C17.5817 13.3789 17.6303 13.2616 17.6303 13.1394V11.0703C17.6303 10.948 17.5817 10.8308 17.4953 10.7444C17.4089 10.6579 17.2916 10.6094 17.1694 10.6094Z" fill="#008493"/>
<path d="M11.8422 10.6094H11.2661C11.3884 10.6094 11.5056 10.6579 11.592 10.7444C11.6785 10.8308 11.727 10.948 11.727 11.0703V13.1394C11.727 13.2616 11.6785 13.3789 11.592 13.4653C11.5056 13.5517 11.3884 13.6003 11.2661 13.6003H11.8422C11.9645 13.6003 12.0817 13.5517 12.1682 13.4653C12.2546 13.3789 12.3032 13.2616 12.3032 13.1394V11.0703C12.3032 10.948 12.2546 10.8308 12.1682 10.7444C12.0817 10.6579 11.9645 10.6094 11.8422 10.6094Z" fill="#008493"/>
<path d="M22.4965 15.6719H21.9204C22.0426 15.6719 22.1599 15.7204 22.2463 15.8069C22.3328 15.8933 22.3813 16.0105 22.3813 16.1328V18.2019C22.3813 18.3241 22.3328 18.4414 22.2463 18.5278C22.1599 18.6142 22.0426 18.6628 21.9204 18.6628H22.4965C22.6188 18.6628 22.736 18.6142 22.8225 18.5278C22.9089 18.4414 22.9574 18.3241 22.9574 18.2019V16.1328C22.9574 16.0105 22.9089 15.8933 22.8225 15.8069C22.736 15.7204 22.6188 15.6719 22.4965 15.6719Z" fill="#008493"/>
<path d="M17.1694 15.6719H16.5933C16.7155 15.6719 16.8327 15.7204 16.9192 15.8069C17.0056 15.8933 17.0542 16.0105 17.0542 16.1328V18.2019C17.0542 18.3241 17.0056 18.4414 16.9192 18.5278C16.8327 18.6142 16.7155 18.6628 16.5933 18.6628H17.1694C17.2916 18.6628 17.4089 18.6142 17.4953 18.5278C17.5817 18.4414 17.6303 18.3241 17.6303 18.2019V16.1328C17.6303 16.0105 17.5817 15.8933 17.4953 15.8069C17.4089 15.7204 17.2916 15.6719 17.1694 15.6719Z" fill="#008493"/>
<path d="M21.0326 13.4686C20.9111 13.4686 20.7944 13.4206 20.7081 13.335L19.761 12.3959C19.6748 12.3097 19.6262 12.1929 19.626 12.071C19.6257 11.9491 19.6738 11.8321 19.7596 11.7455C19.8454 11.659 19.962 11.6099 20.0839 11.6091C20.2058 11.6083 20.3231 11.6559 20.41 11.7413L21.0034 12.3294L22.2098 10.9052C22.2888 10.8119 22.4016 10.7538 22.5234 10.7438C22.6453 10.7337 22.7661 10.7724 22.8594 10.8514C22.9527 10.9304 23.0107 11.0433 23.0208 11.1651C23.0309 11.2869 22.9922 11.4078 22.9132 11.501L21.3846 13.3056C21.3435 13.3541 21.2928 13.3936 21.2357 13.4215C21.1786 13.4495 21.1163 13.4654 21.0528 13.4681C21.046 13.4684 21.0393 13.4686 21.0326 13.4686Z" fill="#00A78E"/>
<path d="M22.6343 26.515C22.5915 26.5579 22.5407 26.5918 22.4848 26.615C22.4288 26.6382 22.3689 26.6501 22.3083 26.6501H1.83106C1.34561 26.6496 0.880197 26.4565 0.536929 26.1132C0.19366 25.7699 0.000564172 25.3045 0 24.8191V26.168C0.000564172 26.6534 0.19366 27.1188 0.536929 27.4621C0.880197 27.8054 1.34561 27.9985 1.83106 27.999H24.8363C25.3216 27.9983 25.7868 27.8051 26.1298 27.4619C26.4727 27.1186 26.6655 26.6532 26.6658 26.168V22.291C26.6658 22.4132 26.6173 22.5304 26.5309 22.6168L22.6343 26.515Z" fill="#CCCCDB"/>
<path d="M26.666 22.2929V22.2324H23.1816C22.9371 22.2324 22.7026 22.3295 22.5298 22.5024C22.3569 22.6753 22.2598 22.9098 22.2598 23.1542V26.652H22.3086C22.3691 26.652 22.4291 26.64 22.485 26.6169C22.5409 26.5937 22.5917 26.5597 22.6345 26.5169L26.5311 22.6187C26.6175 22.5322 26.666 22.4151 26.666 22.2929Z" fill="#B6B6C5"/>
<path d="M24.8363 2.35742H19.9734V4.10206C20.0005 4.16256 20.2118 4.31057 20.561 4.31057C20.6833 4.31057 20.8005 4.35913 20.887 4.44556C20.9734 4.532 21.0219 4.64923 21.0219 4.77147C21.0219 4.89371 20.9734 5.01094 20.887 5.09738C20.8005 5.18382 20.6833 5.23238 20.561 5.23238C19.7146 5.23238 19.0516 4.73869 19.0516 4.1084V2.35742H12.7452V4.10172C12.7728 4.16244 12.9844 4.31057 13.3329 4.31057C13.4551 4.31057 13.5724 4.35913 13.6588 4.44556C13.7452 4.532 13.7938 4.64923 13.7938 4.77147C13.7938 4.89371 13.7452 5.01094 13.6588 5.09738C13.5724 5.18382 13.4551 5.23238 13.3329 5.23238C12.4865 5.23238 11.8234 4.73869 11.8234 4.1084V2.35742H5.51894V4.10172C5.54648 4.16244 5.75809 4.31057 6.10659 4.31057C6.22883 4.31057 6.34607 4.35913 6.4325 4.44556C6.51894 4.532 6.5675 4.64923 6.5675 4.77147C6.5675 4.89371 6.51894 5.01094 6.4325 5.09738C6.34607 5.18382 6.22883 5.23238 6.10659 5.23238C5.26026 5.23238 4.59713 4.73869 4.59713 4.1084V2.35742H1.83106C1.34561 2.35796 0.880189 2.55103 0.536915 2.8943C0.193642 3.23756 0.000548984 3.70297 0 4.18843V8.11805H26.6658V4.18843C26.6655 3.70317 26.4727 3.23785 26.1297 2.89458C25.7868 2.55131 25.3216 2.35812 24.8363 2.35742Z" fill="#00A78E"/>
<path d="M0 8.11914H26.6658V8.83884H0V8.11914Z" fill="#D1C9C9"/>
<path d="M13.794 4.77227C13.794 4.89451 13.7454 5.01174 13.659 5.09818C13.5725 5.18462 13.4553 5.23318 13.3331 5.23318C12.4867 5.23318 11.8236 4.73949 11.8236 4.1092V1.1223C11.8236 0.492996 12.4867 0 13.3331 0C14.1794 0 14.8425 0.492996 14.8425 1.1223V2.35822H13.9207V1.12974C13.8919 1.06907 13.6796 0.921811 13.3331 0.921811C12.9865 0.921811 12.7742 1.06907 12.7454 1.12974V4.10258C12.7729 4.1633 12.9846 4.31142 13.3331 4.31142C13.4553 4.31142 13.5725 4.35998 13.6589 4.4464C13.7454 4.53282 13.7939 4.65004 13.794 4.77227ZM6.10663 4.31137C5.75825 4.31137 5.54663 4.16324 5.51898 4.10252V1.12968C5.54779 1.06901 5.75997 0.921753 6.10663 0.921753C6.45329 0.921753 6.66548 1.06901 6.69429 1.12968V2.35822H7.6161V1.1223C7.6161 0.492996 6.95314 0 6.10663 0C5.26012 0 4.59717 0.492996 4.59717 1.1223V4.1092C4.59717 4.73949 5.26018 5.23318 6.10663 5.23318C6.22887 5.23318 6.34611 5.18462 6.43254 5.09818C6.51898 5.01174 6.56754 4.89451 6.56754 4.77227C6.56754 4.65003 6.51898 4.5328 6.43254 4.44636C6.34611 4.35993 6.22887 4.31137 6.10663 4.31137ZM20.5611 4.31137C20.212 4.31137 20.0006 4.16336 19.9734 4.10286V1.12922C20.0017 1.06872 20.2137 0.921811 20.5611 0.921811C20.9075 0.921811 21.1189 1.06895 21.147 1.12922V2.35822H22.0688V1.1223C22.0688 0.492996 21.4063 0 20.5611 0C19.7147 0 19.0516 0.492996 19.0516 1.1223V4.1092C19.0516 4.73949 19.7146 5.23318 20.5611 5.23318C20.6833 5.23318 20.8006 5.18462 20.887 5.09818C20.9734 5.01174 21.022 4.89451 21.022 4.77227C21.022 4.65003 20.9734 4.5328 20.887 4.44636C20.8006 4.35993 20.6833 4.31137 20.5611 4.31137Z" fill="#02C8DE"/>
<path d="M6.10937 3.9082C5.89788 3.90821 5.69382 3.98616 5.53617 4.12713C5.5977 4.19592 5.79849 4.3115 6.10654 4.3115C6.22878 4.3115 6.34602 4.36006 6.43245 4.44649C6.51889 4.53293 6.56745 4.65016 6.56745 4.7724C6.56745 4.89464 6.51889 5.01187 6.43245 5.09831C6.34602 5.18475 6.22878 5.23331 6.10654 5.23331C5.82729 5.23585 5.55083 5.17754 5.29639 5.06243C5.34961 5.21146 5.44275 5.34301 5.56565 5.44271C5.68855 5.54241 5.83648 5.60643 5.99329 5.62778C6.15009 5.64913 6.30975 5.62699 6.45483 5.56377C6.59991 5.50056 6.72483 5.3987 6.81596 5.26932C6.90709 5.13994 6.96093 4.98801 6.97159 4.83011C6.98224 4.67222 6.94932 4.51443 6.87641 4.37398C6.80349 4.23352 6.69339 4.1158 6.55812 4.03366C6.42285 3.95152 6.26762 3.90812 6.10937 3.9082Z" fill="#007B68"/>
<path d="M13.3327 3.9082C13.122 3.90814 12.9186 3.98546 12.7611 4.12546C12.821 4.19408 13.0224 4.31144 13.3327 4.31144C13.455 4.31144 13.5722 4.36 13.6586 4.44643C13.7451 4.53287 13.7936 4.6501 13.7936 4.77234C13.7936 4.89458 13.7451 5.01182 13.6586 5.09825C13.5722 5.18469 13.455 5.23325 13.3327 5.23325C13.0522 5.23583 12.7744 5.17695 12.519 5.06075C12.5719 5.21 12.6648 5.34184 12.7876 5.44185C12.9104 5.54187 13.0582 5.60621 13.2151 5.62786C13.372 5.6495 13.5317 5.62761 13.677 5.56458C13.8222 5.50155 13.9474 5.3998 14.0387 5.27046C14.1301 5.14111 14.1841 4.98915 14.1949 4.83118C14.2057 4.6732 14.1729 4.5153 14.1 4.37472C14.0271 4.23415 13.917 4.1163 13.7817 4.03408C13.6464 3.95185 13.4911 3.90841 13.3327 3.90849V3.9082Z" fill="#007B68"/>
<path d="M20.5599 3.90826C20.3494 3.90819 20.1461 3.98541 19.9886 4.12529C20.0476 4.19362 20.249 4.3115 20.5607 4.3115C20.683 4.3115 20.8002 4.36005 20.8867 4.44649C20.9731 4.53293 21.0217 4.65016 21.0217 4.7724C21.0217 4.89464 20.9731 5.01187 20.8867 5.09831C20.8002 5.18475 20.683 5.23331 20.5607 5.23331C20.2798 5.23593 20.0017 5.17693 19.7461 5.06047C19.799 5.20971 19.8919 5.34154 20.0146 5.44155C20.1374 5.54156 20.2853 5.60591 20.4421 5.62756C20.599 5.64921 20.7587 5.62734 20.904 5.56432C21.0492 5.5013 21.1744 5.39957 21.2657 5.27024C21.3571 5.14091 21.4111 4.98896 21.4219 4.831C21.4328 4.67303 21.4 4.51513 21.3271 4.37455C21.2543 4.23397 21.1442 4.11611 21.0089 4.03387C20.8736 3.95162 20.7183 3.90821 20.5599 3.90826Z" fill="#007B68"/>
</svg>
