<svg width="18" height="16" viewBox="0 0 18 16" fill="none" xmlns="http://www.w3.org/2000/svg">
<path d="M1.5 15C1.49994 13.8024 1.8331 12.6303 2.45951 11.6243C3.08592 10.6183 3.97896 9.82111 5.03145 9.32842C6.08394 8.83573 7.25118 8.66847 8.39307 8.84671C9.53496 9.02496 10.603 9.54114 11.469 10.3333M12 13.4444L13.5 15L16.5 11.8889M11.25 4.88889C11.25 7.03666 9.57107 8.77778 7.5 8.77778C5.42893 8.77778 3.75 7.03666 3.75 4.88889C3.75 2.74111 5.42893 1 7.5 1C9.57107 1 11.25 2.74111 11.25 4.88889Z" stroke="#7B7B7B" stroke-width="1.4" stroke-linecap="round" stroke-linejoin="round"/>
</svg>
