<svg width="16" height="16" viewBox="0 0 16 16" fill="none" xmlns="http://www.w3.org/2000/svg">
<path d="M7.99805 14.2047C4.3575 14.2047 1.40625 11.2515 1.40625 7.60864C1.40625 3.96577 4.3575 1.01265 7.99805 1.01265C11.6386 1.01265 14.5898 3.96577 14.5898 7.60864C14.5898 10.3297 12.9433 12.6659 10.5928 13.674" stroke="#BC0D10" stroke-width="1.4" stroke-miterlimit="10" stroke-linecap="round"/>
<path d="M7.30276 13.3048L7.99692 14.2047L7.21484 14.9873" stroke="#BC0D10" stroke-width="1.4" stroke-miterlimit="10" stroke-linecap="round"/>
<path d="M6.65625 8.78252C6.65625 9.4308 7.25687 9.95636 7.99775 9.95636C8.73864 9.95636 9.33923 9.4308 9.33923 8.78252C9.33923 8.13421 8.73864 7.60868 7.99775 7.60868C7.25687 7.60868 6.65625 7.08313 6.65625 6.43482C6.65625 5.78654 7.25687 5.26098 7.99775 5.26098C8.73864 5.26098 9.33923 5.78654 9.33923 6.43482" stroke="#BC0D10" stroke-width="1.4" stroke-miterlimit="10" stroke-linecap="round"/>
<path d="M7.99609 4.21093V5.26099" stroke="#BC0D10" stroke-width="1.4" stroke-miterlimit="10" stroke-linecap="round"/>
<path d="M7.99609 9.95635V11.0064" stroke="#BC0D10" stroke-width="1.4" stroke-miterlimit="10" stroke-linecap="round"/>
</svg>
