<svg width="18" height="12" viewBox="0 0 18 12" fill="none" xmlns="http://www.w3.org/2000/svg">
<path d="M16.0579 4.25275C12.3113 0.702138 6.54273 0.515259 2.58376 3.69273C2.36415 3.869 2.15004 4.05566 1.94207 4.25275C1.71833 4.46477 1.36506 4.45532 1.15302 4.23156C0.940987 4.00782 0.950475 3.65455 1.17421 3.44252C1.40442 3.22435 1.6416 3.01757 1.88501 2.82219C6.27558 -0.701693 12.6707 -0.495145 16.8258 3.44252C17.0495 3.65455 17.059 4.00782 16.847 4.23156C16.635 4.45532 16.2816 4.46477 16.0579 4.25275Z" fill="black" stroke="black" stroke-width="0.6"/>
<path d="M3.3959 5.99572C6.49089 2.90076 11.5088 2.90076 14.6038 5.99572C14.8218 6.21369 14.8218 6.5671 14.6038 6.78507C14.3858 7.00305 14.0325 7.00305 13.8145 6.78507C11.1555 4.12603 6.84428 4.12603 4.18523 6.78507C3.96726 7.00305 3.61387 7.00305 3.3959 6.78507C3.17793 6.5671 3.17793 6.21369 3.3959 5.99572Z" fill="black" stroke="black" stroke-width="0.6"/>
<path d="M5.62832 8.41984C7.49031 6.55789 10.5092 6.55789 12.3711 8.41984C12.5891 8.63781 12.5891 8.99123 12.3711 9.2092C12.1531 9.42717 11.7998 9.42717 11.5818 9.2092C10.1558 7.78312 7.84371 7.78312 6.41765 9.2092C6.19968 9.42717 5.84629 9.42717 5.62832 9.2092C5.41035 8.99123 5.41035 8.63781 5.62832 8.41984Z" fill="black" stroke="black" stroke-width="0.6"/>
<path d="M9.00055 11.6746C9.51426 11.6746 9.93078 11.258 9.93078 10.7443C9.93078 10.2305 9.51426 9.81409 9.00055 9.81409C8.48676 9.81409 8.07031 10.2305 8.07031 10.7443C8.07031 11.258 8.48676 11.6746 9.00055 11.6746Z" fill="black" stroke="black" stroke-width="0.6"/>
</svg>
