<svg width="18" height="18" viewBox="0 0 18 18" fill="none" xmlns="http://www.w3.org/2000/svg">
<path d="M17 9.00012C17 13.4001 13.3999 17.0001 9 17.0001C4.60007 17.0001 1 13.4001 1 9.00012C1 4.60019 4.60007 1.00012 9 1.00012C13.3999 1.00012 17 4.60019 17 9.00012Z" stroke="black" stroke-width="1.3" stroke-miterlimit="10" stroke-linecap="round" stroke-linejoin="round"/>
<path d="M4.42319 12.8731C4.61764 12.6787 4.9329 12.6787 5.12735 12.8731C5.32181 13.0676 5.32181 13.3828 5.12735 13.5773C4.9329 13.7718 4.61764 13.7718 4.42319 13.5773C4.22873 13.3828 4.22873 13.0676 4.42319 12.8731Z" fill="black"/>
<path d="M12.8724 4.42282C13.0668 4.22836 13.3821 4.22836 13.5766 4.42282C13.771 4.61728 13.771 4.93253 13.5766 5.12698C13.3821 5.32144 13.0668 5.32144 12.8724 5.12698C12.6779 4.93253 12.6779 4.61728 12.8724 4.42282Z" fill="black"/>
<path d="M5.12735 4.42294C5.32181 4.6174 5.32181 4.93265 5.12735 5.12711C4.93293 5.32156 4.61764 5.32156 4.42319 5.12711C4.22873 4.93265 4.22873 4.6174 4.42319 4.42294C4.61764 4.22848 4.93293 4.22848 5.12735 4.42294Z" fill="black"/>
<path d="M13.5766 12.873C13.771 13.0675 13.771 13.3827 13.5766 13.5772C13.3821 13.7716 13.0669 13.7716 12.8724 13.5772C12.6779 13.3827 12.6779 13.0675 12.8724 12.873C13.0669 12.6786 13.3821 12.6786 13.5766 12.873Z" fill="black"/>
<path d="M9 3.02502V4.02087" stroke="black" stroke-width="1.3" stroke-miterlimit="10" stroke-linecap="round" stroke-linejoin="round"/>
<path d="M9 13.9794V14.9752" stroke="black" stroke-width="1.3" stroke-miterlimit="10" stroke-linecap="round" stroke-linejoin="round"/>
<path d="M3.02539 9.00012H4.02124" stroke="black" stroke-width="1.3" stroke-miterlimit="10" stroke-linecap="round" stroke-linejoin="round"/>
<path d="M13.9785 9.00012H14.9744" stroke="black" stroke-width="1.3" stroke-miterlimit="10" stroke-linecap="round" stroke-linejoin="round"/>
<path d="M9 6.01257V9.00012L11.9876 11.9877" stroke="black" stroke-width="1.3" stroke-miterlimit="10" stroke-linecap="round" stroke-linejoin="round"/>
</svg>
