<svg width="18" height="18" viewBox="0 0 18 18" fill="none" xmlns="http://www.w3.org/2000/svg">
<path d="M17.0026 4.53501C17.0026 3.5975 16.6302 2.69838 15.9673 2.03547C15.3044 1.37255 14.4053 1.00012 13.4678 1.00012H4.53752C3.60001 1.00012 2.7009 1.37255 2.03798 2.03547C1.37506 2.69838 1.00264 3.5975 1.00264 4.53501V13.4652C0.999121 13.4774 0.999121 13.4903 1.00264 13.5024C1.01244 14.4335 1.38918 15.3231 2.05104 15.978C2.7129 16.6329 3.60642 17.0002 4.53752 17.0001H13.4678C14.395 16.9983 15.2844 16.6321 15.9443 15.9807C16.6041 15.3292 16.9815 14.4445 16.9952 13.5173V4.53501H17.0026ZM4.53752 2.1164H13.4678C14.1086 2.11836 14.7226 2.37381 15.1758 2.82696C15.6289 3.28011 15.8844 3.89416 15.8864 4.53501V11.9769L12.7757 8.41966C12.578 8.20925 12.3394 8.04156 12.0744 7.92693C11.8095 7.8123 11.5239 7.75317 11.2352 7.75317C10.9465 7.75317 10.6609 7.8123 10.396 7.92693C10.131 8.04156 9.89237 8.20925 9.69473 8.41966L7.55892 10.8606L6.85938 10.0122C6.66662 9.78098 6.42538 9.59494 6.15275 9.46727C5.88012 9.33961 5.58275 9.27343 5.28171 9.27343C4.98066 9.27343 4.6833 9.33961 4.41066 9.46727C4.13803 9.59494 3.89679 9.78098 3.70403 10.0122L2.11891 11.9248V4.53501C2.12088 3.89416 2.37632 3.28011 2.82948 2.82696C3.28263 2.37381 3.89667 2.11836 4.53752 2.1164ZM13.4678 15.8838H4.53752C3.9296 15.8819 3.34471 15.6511 2.89929 15.2374C2.45386 14.8237 2.18056 14.2574 2.1338 13.6513L4.53752 10.7266C4.62755 10.6263 4.7377 10.5461 4.86079 10.4912C4.98388 10.4363 5.11715 10.4079 5.25194 10.4079C5.38672 10.4079 5.52 10.4363 5.64309 10.4912C5.76618 10.5461 5.87632 10.6263 5.96636 10.7266L7.09008 12.0811C7.14161 12.1437 7.20636 12.1942 7.27969 12.229C7.35302 12.2637 7.43312 12.2818 7.51426 12.282C7.59435 12.2799 7.6732 12.2617 7.74609 12.2285C7.81897 12.1952 7.8844 12.1476 7.93845 12.0885L10.4985 9.1564C10.5895 9.06048 10.6992 8.98409 10.8207 8.93189C10.9423 8.87969 11.0732 8.85277 11.2054 8.85277C11.3377 8.85277 11.4686 8.87969 11.5901 8.93189C11.7117 8.98409 11.8213 9.06048 11.9124 9.1564L15.8343 13.6215C15.7969 14.2272 15.5325 14.7966 15.0938 15.2159C14.6552 15.6352 14.0745 15.8738 13.4678 15.8838Z" fill="black" stroke="black" stroke-width="0.4"/>
<path d="M5.28089 7.32569C5.68565 7.32569 6.08132 7.20566 6.41787 6.98079C6.75441 6.75592 7.01672 6.4363 7.17162 6.06234C7.32651 5.68839 7.36704 5.27691 7.28807 4.87992C7.20911 4.48294 7.0142 4.11829 6.72799 3.83208C6.44178 3.54587 6.07713 3.35096 5.68014 3.27199C5.28316 3.19302 4.87167 3.23355 4.49772 3.38845C4.12377 3.54334 3.80415 3.80565 3.57927 4.1422C3.3544 4.47874 3.23438 4.87442 3.23438 5.27918C3.23438 5.82195 3.44999 6.34249 3.83378 6.72628C4.21758 7.11008 4.73812 7.32569 5.28089 7.32569ZM5.28089 4.34895C5.46487 4.34895 5.64472 4.4035 5.7977 4.50572C5.95067 4.60793 6.0699 4.75322 6.14031 4.92319C6.21072 5.09317 6.22914 5.28021 6.19324 5.46066C6.15735 5.64111 6.06876 5.80686 5.93866 5.93695C5.80856 6.06705 5.64281 6.15564 5.46237 6.19154C5.28192 6.22743 5.09488 6.20901 4.9249 6.1386C4.75492 6.06819 4.60964 5.94896 4.50743 5.79599C4.40521 5.64301 4.35065 5.46316 4.35065 5.27918C4.35065 5.03247 4.44866 4.79586 4.62311 4.6214C4.79757 4.44695 5.03417 4.34895 5.28089 4.34895Z" fill="black" stroke="black" stroke-width="0.4"/>
</svg>
