<svg width="16" height="16" viewBox="0 0 16 16" fill="none" xmlns="http://www.w3.org/2000/svg">
<mask id="mask0_2308_10503" style="mask-type:luminance" maskUnits="userSpaceOnUse" x="0" y="0" width="16" height="17">
<path d="M0 0.00012207H16V16.0001H0V0.00012207Z" fill="white"/>
</mask>
<g mask="url(#mask0_2308_10503)">
<path d="M5.89063 5.83617V10.577C5.89063 10.9985 5.73434 11.3964 5.46447 11.7012C5.14178 12.0658 4.71875 12.5295 4.71875 13.0164" stroke="black" stroke-width="1.3" stroke-miterlimit="10"/>
<path d="M3.54688 6.24059V10.577C3.54688 10.9985 3.70319 11.3963 3.97303 11.7012C4.29572 12.0658 4.71875 12.5294 4.71875 13.0163V14.0079C4.71875 14.8493 5.40081 15.5314 6.24219 15.5314C7.08356 15.5314 7.76562 14.8493 7.76562 14.0079V12.1578C7.76562 11.1222 8.60509 10.2828 9.64062 10.2828C10.6762 10.2828 11.5156 11.1222 11.5156 12.1578V14.5939C11.5156 15.1117 11.0959 15.5314 10.5781 15.5314C10.0604 15.5314 9.64062 15.1117 9.64062 14.5939C9.64062 14.0761 10.0604 13.6564 10.5781 13.6564H16" stroke="black" stroke-width="1.3" stroke-miterlimit="10"/>
<path d="M10.4512 1.51826V5.19116" stroke="black" stroke-width="1.3" stroke-miterlimit="10"/>
<path d="M0.46875 5.35216C1.23791 5.89691 2.36312 6.2406 3.61697 6.2406C4.34175 6.2406 5.02359 6.12579 5.61853 5.92369C7.00775 5.45173 8.98469 5.19123 10.4519 5.19123C10.4519 5.19123 11.3552 5.54473 12.7096 5.67141C13.2458 5.72157 13.6562 6.17082 13.6562 6.70935V0.000130807C13.6562 0.538693 13.2458 0.987943 12.7096 1.0381C11.3552 1.16476 10.4519 1.51829 10.4519 1.51829C8.98469 1.51829 7.00775 1.25776 5.61853 0.785818C5.02359 0.583725 4.34175 0.468881 3.61697 0.468881C2.36312 0.468881 1.23791 0.8126 0.46875 1.35735V5.35216Z" stroke="black" stroke-width="1.3" stroke-miterlimit="10"/>
<path d="M5.89062 7.71112H7.29688" stroke="black" stroke-width="1.3" stroke-miterlimit="10"/>
<path d="M0.46875 3.35474H3.54688" stroke="black" stroke-width="1.3" stroke-miterlimit="10"/>
<path d="M3.54688 6.2406V0.468881" stroke="black" stroke-width="1.3" stroke-miterlimit="10"/>
<path d="M9.04492 3.35474H8.10742" stroke="black" stroke-width="1.3" stroke-miterlimit="10"/>
</g>
</svg>
