<svg width="16" height="16" viewBox="0 0 16 16" fill="none" xmlns="http://www.w3.org/2000/svg">
<mask id="mask0_2308_10528" style="mask-type:luminance" maskUnits="userSpaceOnUse" x="0" y="0" width="16" height="17">
<path d="M0 0.00012207H16V16.0001H0V0.00012207Z" fill="white"/>
</mask>
<g mask="url(#mask0_2308_10528)">
<path d="M15.5022 0.488425L15.3849 0.476331C14.9437 0.430894 14.5035 0.571456 14.1703 0.864238L5.49805 8.48524L7.51458 10.5018L15.1276 1.82002C15.4196 1.48696 15.5598 1.04733 15.5144 0.606738L15.5022 0.488425Z" stroke="black" stroke-width="1.3" stroke-miterlimit="10"/>
<path d="M3.24909 10.2534C2.61305 10.8895 1.58184 10.8895 0.945774 10.2534C0.309742 9.61741 0.309742 8.5862 0.945774 7.95013C1.58184 7.3141 2.61305 7.3141 3.24909 7.95013C3.88512 8.5862 3.88512 9.61741 3.24909 10.2534Z" stroke="black" stroke-width="1.3" stroke-miterlimit="10"/>
<path d="M8.04987 15.054C7.41384 15.69 6.38262 15.69 5.74655 15.054C5.11052 14.418 5.11052 13.3867 5.74655 12.7507C6.38262 12.1146 7.41384 12.1146 8.04987 12.7507C8.6859 13.3867 8.6859 14.418 8.04987 15.054Z" stroke="black" stroke-width="1.3" stroke-miterlimit="10"/>
<path d="M9.73086 7.97401L14.202 12.4452L13.5855 13.0616C13.0565 13.5906 12.1988 13.5906 11.6698 13.0616L8.25977 9.6516" stroke="black" stroke-width="1.3" stroke-miterlimit="10"/>
<path d="M6.3476 7.73883L2.93388 4.32511C2.40485 3.79608 2.40485 2.93836 2.93388 2.40933L3.55032 1.79289L8.02351 6.26608" stroke="black" stroke-width="1.3" stroke-miterlimit="10"/>
<path d="M3.55078 1.79297L5.01094 0.332812" stroke="black" stroke-width="1.3" stroke-miterlimit="10"/>
<path d="M5.07227 3.31482L6.53242 1.85466" stroke="black" stroke-width="1.3" stroke-miterlimit="10"/>
<path d="M6.59375 4.83649L8.05391 3.37633" stroke="black" stroke-width="1.3" stroke-miterlimit="10"/>
<path d="M11.1582 9.40173L12.6184 7.94158" stroke="black" stroke-width="1.3" stroke-miterlimit="10"/>
<path d="M12.6797 10.9234L14.1398 9.46324" stroke="black" stroke-width="1.3" stroke-miterlimit="10"/>
<path d="M14.2031 12.4453L15.6633 10.9852" stroke="black" stroke-width="1.3" stroke-miterlimit="10"/>
<path d="M7.16406 12.2959L7.51381 10.5018" stroke="black" stroke-width="1.3" stroke-miterlimit="10"/>
<path d="M3.70312 8.83496L5.49697 8.48524" stroke="black" stroke-width="1.3" stroke-miterlimit="10"/>
</g>
</svg>
