<svg width="17" height="17" viewBox="0 0 17 17" fill="none" xmlns="http://www.w3.org/2000/svg">
<path d="M7.19254 0.723849C7.33132 0.502304 7.52409 0.319653 7.75278 0.193038C7.98149 0.0664239 8.2386 0 8.49999 0C8.7614 0 9.01851 0.0664239 9.2472 0.193038C9.47591 0.319653 9.66868 0.502304 9.80744 0.723849L12.3439 4.7381L15.6518 5.14345C15.9261 5.17411 16.1869 5.27907 16.406 5.44701C16.6251 5.61495 16.7942 5.8395 16.8951 6.09648C16.9959 6.35345 17.0249 6.63309 16.9785 6.90526C16.9323 7.17742 16.8126 7.43178 16.6324 7.64094L13.8736 10.8053L14.7627 15.1857C14.8185 15.4714 14.7914 15.7672 14.6849 16.0383C14.5783 16.3092 14.3966 16.5442 14.1612 16.7155C13.9229 16.8838 13.642 16.9814 13.3508 16.9976C13.0595 17.0138 12.7694 16.9478 12.5139 16.8071L8.49999 14.6103L4.48612 16.8071C4.23056 16.9478 3.9406 17.0138 3.6493 16.9976C3.358 16.9814 3.07713 16.8838 2.83873 16.7155C2.6033 16.5442 2.42165 16.3092 2.31511 16.0383C2.20857 15.7672 2.18159 15.4714 2.23732 15.1857L3.12637 10.8053L0.367654 7.64094C0.18747 7.43178 0.0677793 7.17742 0.0214825 6.90526C-0.0248144 6.63309 0.00404073 6.35345 0.104937 6.09648C0.205831 5.8395 0.374943 5.61495 0.594033 5.44701C0.813135 5.27907 1.0739 5.17411 1.34825 5.14345L4.6561 4.7381L7.19254 0.723849Z" fill="#FBBC05"/>
</svg>
