<svg width="19" height="19" viewBox="0 0 19 19" fill="none" xmlns="http://www.w3.org/2000/svg">
<path d="M17.6499 9.15039C17.6499 13.8253 13.8248 17.6504 9.1499 17.6504C4.47497 17.6504 0.649902 13.8253 0.649902 9.15039C0.649902 4.47546 4.47497 0.65039 9.1499 0.65039C13.8248 0.65039 17.6499 4.47546 17.6499 9.15039Z" stroke="black" stroke-width="1.3" stroke-miterlimit="10" stroke-linecap="round" stroke-linejoin="round"/>
<path d="M4.28704 13.2648C4.49365 13.0582 4.8286 13.0582 5.03521 13.2648C5.24182 13.4714 5.24182 13.8064 5.03521 14.013C4.8286 14.2196 4.49365 14.2196 4.28704 14.013C4.08043 13.8064 4.08043 13.4714 4.28704 13.2648Z" fill="black"/>
<path d="M13.2648 4.28827C13.4714 4.08166 13.8064 4.08166 14.013 4.28827C14.2196 4.49488 14.2196 4.82984 14.013 5.03645C13.8064 5.24306 13.4714 5.24306 13.2648 5.03645C13.0582 4.82984 13.0582 4.49488 13.2648 4.28827Z" fill="black"/>
<path d="M5.03521 4.28827C5.24182 4.49488 5.24182 4.82984 5.03521 5.03645C4.82864 5.24306 4.49365 5.24306 4.28704 5.03645C4.08043 4.82984 4.08043 4.49488 4.28704 4.28827C4.49365 4.08166 4.82864 4.08166 5.03521 4.28827Z" fill="black"/>
<path d="M14.013 13.2648C14.2196 13.4714 14.2196 13.8064 14.013 14.013C13.8064 14.2196 13.4714 14.2196 13.2648 14.013C13.0582 13.8064 13.0582 13.4714 13.2648 13.2648C13.4714 13.0582 13.8064 13.0582 14.013 13.2648Z" fill="black"/>
<path d="M9.1499 2.80324V3.86133" stroke="black" stroke-width="1.3" stroke-miterlimit="10" stroke-linecap="round" stroke-linejoin="round"/>
<path d="M9.1499 14.44V15.498" stroke="black" stroke-width="1.3" stroke-miterlimit="10" stroke-linecap="round" stroke-linejoin="round"/>
<path d="M2.80176 9.15039H3.85985" stroke="black" stroke-width="1.3" stroke-miterlimit="10" stroke-linecap="round" stroke-linejoin="round"/>
<path d="M14.4404 9.15039H15.4985" stroke="black" stroke-width="1.3" stroke-miterlimit="10" stroke-linecap="round" stroke-linejoin="round"/>
<path d="M9.1499 5.97762V9.1519L12.3242 12.3262" stroke="black" stroke-width="1.3" stroke-miterlimit="10" stroke-linecap="round" stroke-linejoin="round"/>
</svg>
