<svg width="18" height="16" viewBox="0 0 18 16" fill="none" xmlns="http://www.w3.org/2000/svg">
<path d="M1.5 14.2632C1.5 13.2375 1.77238 12.2296 2.29022 11.3391C2.80807 10.4485 3.55346 9.70615 4.45274 9.18525C5.35203 8.66436 6.37409 8.383 7.41794 8.36897C8.46179 8.35495 9.4913 8.60874 10.4048 9.10527M12.75 11.3158L16.5 15M16.5 11.3158L12.75 15M11.25 4.68421C11.25 6.71894 9.57107 8.36842 7.5 8.36842C5.42893 8.36842 3.75 6.71894 3.75 4.68421C3.75 2.64948 5.42893 1 7.5 1C9.57107 1 11.25 2.64948 11.25 4.68421Z" stroke="#7B7B7B" stroke-width="1.4" stroke-linecap="round" stroke-linejoin="round"/>
</svg>
