<svg width="24" height="24" viewBox="0 0 24 24" fill="none" xmlns="http://www.w3.org/2000/svg">
<path d="M14.9248 17.2557H16.5508L9.06615 6.7798H7.4401L14.9248 17.2557Z" fill="#00A78E"/>
<path fill-rule="evenodd" clip-rule="evenodd" d="M3.75 0C1.67894 0 0 1.67894 0 3.75V20.25C0 22.3211 1.67894 24 3.75 24H20.25C22.3211 24 24 22.3211 24 20.25V3.75C24 1.67894 22.3211 0 20.25 0H3.75ZM17.6089 6L13.1414 11.0812L18 18H14.4267L11.1549 13.3409L7.05867 18H6L10.6849 12.6716L6 6H9.57328L12.6714 10.4119L16.5503 6H17.6089Z" fill="#00A78E"/>
</svg>
