<svg width="18" height="18" viewBox="0 0 18 18" fill="none" xmlns="http://www.w3.org/2000/svg">
<g clip-path="url(#clip0_2524_12282)">
<path d="M0.558594 12.1304C1.83023 15.5576 5.12912 18 8.9988 18C12.8685 18 16.1674 15.5576 17.439 12.1304L8.9988 11.3478L0.558594 12.1304Z" fill="#FFDA44"/>
<path d="M8.9988 0C5.12912 0 1.83023 2.44237 0.558594 5.86958L8.9988 6.65216L17.439 5.86955C16.1674 2.44237 12.8685 0 8.9988 0Z" fill="black"/>
<path d="M0.559793 5.86957C0.198035 6.84456 0 7.8991 0 8.99999C0 10.1009 0.198035 11.1554 0.559793 12.1304H17.4402C17.802 11.1554 18 10.1009 18 8.99999C18 7.8991 17.802 6.84456 17.4402 5.86957H0.559793Z" fill="#D80027"/>
</g>
<defs>
<clipPath id="clip0_2524_12282">
<rect width="18" height="18" fill="white"/>
</clipPath>
</defs>
</svg>
