<svg width="17" height="17" viewBox="0 0 17 17" fill="none" xmlns="http://www.w3.org/2000/svg">
<mask id="mask0_2524_12392" style="mask-type:luminance" maskUnits="userSpaceOnUse" x="0" y="0" width="17" height="17">
<path d="M16.8773 8.43863C16.8773 10.6767 15.9882 12.8231 14.4056 14.4056C12.8231 15.9882 10.6767 16.8773 8.43863 16.8773C6.20056 16.8773 4.05417 15.9882 2.47162 14.4056C0.889068 12.8231 0 10.6767 0 8.43863C0 6.20056 0.889068 4.05417 2.47162 2.47162C4.05417 0.889067 6.20056 0 8.43863 0C10.6767 0 12.8231 0.889067 14.4056 2.47162C15.9882 4.05417 16.8773 6.20056 16.8773 8.43863Z" fill="white"/>
</mask>
<g mask="url(#mask0_2524_12392)">
<path d="M0.00390625 16.8755L0.00390625 11.2505H16.8789V16.8755H0.00390625Z" fill="#27AE60"/>
<path d="M0.00390625 11.2505L0.00390625 5.62549L16.8789 5.62549V11.2505L0.00390625 11.2505Z" fill="white"/>
<path d="M0.00390625 5.62549L0.00390625 0.000489235L16.8789 0.000489235V5.62549L0.00390625 5.62549Z" fill="#F39C12"/>
<path d="M8.44053 10.9003C9.79918 10.9003 10.9006 9.79887 10.9006 8.44022C10.9006 7.08157 9.79918 5.98016 8.44053 5.98016C7.08187 5.98016 5.98047 7.08157 5.98047 8.44022C5.98047 9.79887 7.08187 10.9003 8.44053 10.9003Z" fill="#000088"/>
<path d="M8.43771 10.5928C9.62653 10.5928 10.5903 9.62903 10.5903 8.44021C10.5903 7.25139 9.62653 6.28766 8.43771 6.28766C7.24889 6.28766 6.28516 7.25139 6.28516 8.44021C6.28516 9.62903 7.24889 10.5928 8.43771 10.5928Z" fill="white"/>
<path d="M8.44223 8.87073C8.67999 8.87073 8.87274 8.67798 8.87274 8.44021C8.87274 8.20245 8.67999 8.0097 8.44223 8.0097C8.20446 8.0097 8.01172 8.20245 8.01172 8.44021C8.01172 8.67798 8.20446 8.87073 8.44223 8.87073Z" fill="#000088"/>
<path d="M10.5511 8.82788C10.6101 8.83567 10.6642 8.79421 10.672 8.73528C10.6797 8.67635 10.6383 8.62227 10.5794 8.61448C10.5204 8.60669 10.4663 8.64814 10.4586 8.70707C10.4508 8.766 10.4922 8.82009 10.5511 8.82788Z" fill="#000088"/>
<path d="M8.42927 10.5927L8.50307 9.3012L8.42927 8.68619L8.35547 9.3012L8.42927 10.5927Z" fill="#000088"/>
<path d="M10.3763 9.36376C10.4312 9.38654 10.4941 9.36051 10.5169 9.3056C10.5397 9.2507 10.5137 9.18773 10.4588 9.16494C10.4039 9.14216 10.3409 9.16819 10.3181 9.22309C10.2953 9.278 10.3214 9.34097 10.3763 9.36376Z" fill="#000088"/>
<path d="M7.87437 10.5195L8.28017 9.29102L8.36817 8.67781L8.13759 9.2528L7.87437 10.5195Z" fill="#000088"/>
<path d="M10.0714 9.83578C10.1185 9.87199 10.1861 9.86313 10.2223 9.816C10.2585 9.76886 10.2497 9.70129 10.2025 9.66508C10.1554 9.62887 10.0878 9.63773 10.0516 9.68487C10.0154 9.732 10.0243 9.79957 10.0714 9.83578Z" fill="#000088"/>
<path d="M7.35283 10.3041L8.0625 9.22258L8.3061 8.65308L7.93468 9.14878L7.35283 10.3041Z" fill="#000088"/>
<path d="M9.68757 10.2138C9.72372 10.261 9.79127 10.2699 9.83846 10.2338C9.88564 10.1976 9.89458 10.1301 9.85843 10.0829C9.82228 10.0357 9.75472 10.0268 9.70754 10.0629C9.66036 10.0991 9.65141 10.1666 9.68757 10.2138Z" fill="#000088"/>
<path d="M6.94198 9.96222L7.90765 9.10123L8.29046 8.61418L7.80329 8.99683L6.94198 9.96222Z" fill="#000088"/>
<path d="M9.18988 10.47C9.2126 10.5249 9.27555 10.551 9.33047 10.5283C9.3854 10.5056 9.41151 10.4426 9.38879 10.3877C9.36607 10.3328 9.30313 10.3067 9.2482 10.3294C9.19328 10.3521 9.16717 10.415 9.18988 10.47Z" fill="#000088"/>
<path d="M6.60068 9.51645L7.75604 8.9346L8.25174 8.56318L7.68224 8.80677L6.60068 9.51645Z" fill="#000088"/>
<path d="M8.63649 10.5886C8.64421 10.6475 8.69824 10.689 8.75718 10.6813C8.81611 10.6736 8.85763 10.6195 8.84991 10.5606C8.84219 10.5017 8.78816 10.4601 8.72922 10.4679C8.67029 10.4756 8.62877 10.5296 8.63649 10.5886Z" fill="#000088"/>
<path d="M6.38429 8.99709L7.65108 8.73426L8.22612 8.50385L7.61289 8.59166L6.38429 8.99709Z" fill="#000088"/>
<path d="M8.07719 10.5601C8.0694 10.619 8.11086 10.6731 8.16978 10.6809C8.22871 10.6887 8.28279 10.6472 8.29058 10.5883C8.29837 10.5294 8.25692 10.4753 8.19799 10.4675C8.13907 10.4597 8.08498 10.5012 8.07719 10.5601Z" fill="#000088"/>
<path d="M6.31229 8.44016L7.60376 8.51396L8.21875 8.44016L7.60376 8.36636L6.31229 8.44016Z" fill="#000088"/>
<path d="M7.53729 10.3876C7.5145 10.4425 7.54054 10.5055 7.59543 10.5283C7.65033 10.5511 7.71331 10.525 7.73609 10.4701C7.75887 10.4152 7.73284 10.3523 7.67794 10.3295C7.62304 10.3067 7.56007 10.3327 7.53729 10.3876Z" fill="#000088"/>
<path d="M6.38534 7.88269L7.61379 8.28847L8.22698 8.37647L7.65202 8.14589L6.38534 7.88269Z" fill="#000088"/>
<path d="M7.04105 10.0826C7.00484 10.1297 7.0137 10.1973 7.06085 10.2335C7.10799 10.2697 7.17557 10.2609 7.21178 10.2137C7.24799 10.1666 7.23913 10.099 7.19198 10.0628C7.14484 10.0266 7.07726 10.0354 7.04105 10.0826Z" fill="#000088"/>
<path d="M6.5735 7.36391L7.65523 8.0736L8.22482 8.31719L7.72903 7.94576L6.5735 7.36391Z" fill="#000088"/>
<path d="M6.66643 9.66526C6.61925 9.70142 6.61031 9.76898 6.64647 9.81617C6.68263 9.86335 6.75019 9.87229 6.79738 9.83613C6.84456 9.79997 6.8535 9.73241 6.81734 9.68522C6.78118 9.63804 6.71362 9.6291 6.66643 9.66526Z" fill="#000088"/>
<path d="M6.91983 6.91766L7.78098 7.88339L8.26811 8.26621L7.88538 7.779L6.91983 6.91766Z" fill="#000088"/>
<path d="M6.43935 9.16457C6.38442 9.1873 6.35831 9.25025 6.38103 9.30518C6.40375 9.36011 6.4667 9.38622 6.52163 9.3635C6.57656 9.34078 6.60267 9.27783 6.57995 9.2229C6.55723 9.16796 6.49428 9.14185 6.43935 9.16457Z" fill="#000088"/>
<path d="M7.39283 6.57593L7.97477 7.73138L8.34624 8.22712L8.1026 7.65757L7.39283 6.57593Z" fill="#000088"/>
<path d="M6.2911 8.61444C6.23215 8.62216 6.19063 8.6762 6.19835 8.73514C6.20608 8.79408 6.26012 8.83561 6.31906 8.82788C6.378 8.82016 6.41952 8.76612 6.4118 8.70718C6.40408 8.64824 6.35004 8.60672 6.2911 8.61444Z" fill="#000088"/>
<path d="M7.88458 6.36076L8.14747 7.62766L8.37792 8.20275L8.29008 7.58947L7.88458 6.36076Z" fill="#000088"/>
<path d="M6.33165 8.05273C6.27271 8.04494 6.21863 8.0864 6.21084 8.14534C6.20305 8.20427 6.24452 8.25836 6.30345 8.26614C6.36238 8.27393 6.41647 8.23247 6.42425 8.17353C6.43204 8.1146 6.39058 8.06051 6.33165 8.05273Z" fill="#000088"/>
<path d="M8.45341 6.28757L8.37969 7.5792L8.45354 8.19425L8.5273 7.57919L8.45341 6.28757Z" fill="#000088"/>
<path d="M6.50652 7.51681C6.45162 7.49403 6.38864 7.52007 6.36586 7.57498C6.34307 7.62988 6.36911 7.69286 6.42402 7.71565C6.47893 7.73843 6.54191 7.71239 6.56469 7.65748C6.58747 7.60257 6.56143 7.53959 6.50652 7.51681Z" fill="#000088"/>
<path d="M9.00835 6.36077L8.6026 7.58939L8.51464 8.20266L8.7452 7.62761L9.00835 6.36077Z" fill="#000088"/>
<path d="M6.81139 7.04454C6.76425 7.00833 6.69668 7.01719 6.66047 7.06434C6.62426 7.11148 6.63312 7.17905 6.68027 7.21526C6.72741 7.25147 6.79498 7.24261 6.83119 7.19546C6.8674 7.14832 6.85853 7.08075 6.81139 7.04454Z" fill="#000088"/>
<path d="M9.52994 6.57598L8.82028 7.65767L8.57671 8.22723L8.94812 7.73147L9.52994 6.57598Z" fill="#000088"/>
<path d="M7.19524 6.66666C7.15908 6.61947 7.09152 6.61054 7.04434 6.64669C6.99716 6.68285 6.98822 6.75041 7.02437 6.79759C7.06053 6.84478 7.12809 6.85371 7.17528 6.81756C7.22246 6.7814 7.2314 6.71384 7.19524 6.66666Z" fill="#000088"/>
<path d="M9.94084 6.91812L8.97515 7.77923L8.59234 8.26634L9.07953 7.88363L9.94084 6.91812Z" fill="#000088"/>
<path d="M7.70077 6.41018C7.67805 6.35525 7.61511 6.32913 7.56017 6.35185C7.50524 6.37457 7.47912 6.43752 7.50184 6.49245C7.52455 6.54739 7.5875 6.5735 7.64244 6.55079C7.69737 6.52807 7.72349 6.46512 7.70077 6.41018Z" fill="#000088"/>
<path d="M10.2902 7.364L9.13466 7.94584L8.63888 8.31727L9.20847 8.07369L10.2902 7.364Z" fill="#000088"/>
<path d="M8.25417 6.29166C8.24645 6.23272 8.19242 6.19119 8.13347 6.19891C8.07453 6.20662 8.033 6.26066 8.04072 6.3196C8.04843 6.37855 8.10247 6.42008 8.16141 6.41236C8.22036 6.40464 8.26189 6.35061 8.25417 6.29166Z" fill="#000088"/>
<path d="M10.5066 7.88346L9.23963 8.14624L8.6645 8.37663L9.27781 8.28885L10.5066 7.88346Z" fill="#000088"/>
<path d="M8.81346 6.32008C8.82126 6.26115 8.7798 6.20705 8.72087 6.19926C8.66194 6.19147 8.60784 6.23292 8.60005 6.29185C8.59226 6.35079 8.63371 6.40488 8.69264 6.41267C8.75158 6.42047 8.80567 6.37901 8.81346 6.32008Z" fill="#000088"/>
<path d="M10.5786 8.44039L9.28694 8.3665L8.67188 8.44026L9.28693 8.51411L10.5786 8.44039Z" fill="#000088"/>
<path d="M9.35337 6.49264C9.37616 6.43774 9.35013 6.37475 9.29522 6.35196C9.24032 6.32917 9.17734 6.35521 9.15455 6.41011C9.13176 6.46501 9.15779 6.528 9.21269 6.55079C9.2676 6.57358 9.33058 6.54754 9.35337 6.49264Z" fill="#000088"/>
<path d="M10.5055 8.99791L9.27691 8.592L8.66365 8.50396L9.23867 8.7346L10.5055 8.99791Z" fill="#000088"/>
<path d="M9.84566 6.79808C9.88187 6.75094 9.87302 6.68337 9.82588 6.64715C9.77874 6.61094 9.71116 6.61979 9.67495 6.66693C9.63873 6.71407 9.64759 6.78165 9.69473 6.81786C9.74187 6.85408 9.80944 6.84522 9.84566 6.79808Z" fill="#000088"/>
<path d="M10.3131 9.51672L9.23146 8.80694L8.66191 8.56331L9.15764 8.93478L10.3131 9.51672Z" fill="#000088"/>
<path d="M10.2203 7.21543C10.2675 7.17928 10.2764 7.11172 10.2402 7.06453C10.2041 7.01734 10.1365 7.0084 10.0893 7.04455C10.0422 7.08071 10.0332 7.14827 10.0694 7.19546C10.1055 7.24264 10.1731 7.25159 10.2203 7.21543Z" fill="#000088"/>
<path d="M9.96673 9.96291L9.1057 8.99712L8.61861 8.61426L9.00128 9.10149L9.96673 9.96291Z" fill="#000088"/>
<path d="M10.4474 7.71605C10.5023 7.69334 10.5284 7.63039 10.5057 7.57546C10.483 7.52053 10.42 7.49441 10.3651 7.51713C10.3102 7.53984 10.284 7.60279 10.3068 7.65772C10.3295 7.71265 10.3924 7.73877 10.4474 7.71605Z" fill="#000088"/>
<path d="M9.49371 10.3046L8.91189 9.14908L8.54048 8.65332L8.78406 9.22288L9.49371 10.3046Z" fill="#000088"/>
<path d="M10.5956 8.2664C10.6545 8.25868 10.6961 8.20465 10.6884 8.14571C10.6806 8.08677 10.6266 8.04524 10.5677 8.05295C10.5087 8.06067 10.4672 8.11471 10.4749 8.17365C10.4826 8.23259 10.5367 8.27412 10.5956 8.2664Z" fill="#000088"/>
<path d="M9.00195 10.5199L8.73919 9.253L8.5088 8.6779L8.59658 9.29118L9.00195 10.5199Z" fill="#000088"/>
</g>
</svg>
