<svg width="18" height="18" viewBox="0 0 18 18" fill="none" xmlns="http://www.w3.org/2000/svg">
<g clip-path="url(#clip0_2524_12357)">
<path d="M9 18C13.9706 18 18 13.9706 18 9C18 4.02944 13.9706 0 9 0C4.02944 0 0 4.02944 0 9C0 13.9706 4.02944 18 9 18Z" fill="#3D9635"/>
<path d="M2.64733 5.23969C2.61752 5.70487 2.57927 6.52781 2.92858 6.61106C3.35327 6.65494 3.11927 5.8005 3.27227 5.64525C3.30152 5.56988 3.35552 5.56988 3.35945 5.66494V6.39281C3.35354 6.4701 3.37441 6.54707 3.41856 6.61079C3.46271 6.6745 3.52745 6.72108 3.60189 6.74269C3.71439 6.73425 3.78752 6.73819 3.83083 6.86194C3.84958 7.27931 3.86702 7.69669 3.88314 8.11406C3.88314 8.11406 4.14245 8.20125 4.15483 7.41037C4.12892 7.09721 4.12084 6.78283 4.13064 6.46875C4.13064 6.381 4.23189 6.37313 4.30389 6.42094C4.41639 6.50869 4.46476 6.61556 4.63689 6.57225C4.90014 6.48844 5.05652 6.34725 5.06102 6.11888C5.05454 5.89815 5.01471 5.67968 4.94289 5.47088C4.95414 5.43094 4.89058 5.33194 4.90408 5.292C4.95077 5.37581 5.02164 5.36738 5.03739 5.292C5.01183 5.13809 4.93202 4.99841 4.81239 4.89825C4.71902 4.80656 4.5812 4.82625 4.53114 5.02144C4.52589 5.27047 4.60169 5.51447 4.74714 5.71669C4.792 5.82755 4.8103 5.94737 4.80058 6.06656C4.76561 6.08823 4.72356 6.09536 4.6834 6.08643C4.64325 6.07749 4.60818 6.0532 4.5857 6.01875C4.5857 6.01875 4.3742 5.83988 4.3742 5.80444C4.4254 5.61949 4.41932 5.42336 4.35677 5.24194C4.33343 5.13301 4.28659 5.0305 4.21952 4.94156C4.16777 4.87406 4.09689 4.87406 4.06314 4.94156C3.98873 5.18348 3.99465 5.44298 4.08002 5.68125C4.1267 5.83988 4.20208 5.93944 4.16777 5.93944C4.13852 6.03113 4.07889 6.00694 4.03614 5.90344C3.98475 5.68067 3.96038 5.45253 3.96358 5.22394C3.94389 5.04506 3.92252 4.66144 3.81845 4.56413C3.75489 4.4685 3.65927 4.51631 3.62551 4.608C3.61742 4.78017 3.62099 4.95269 3.6362 5.12437C3.69846 5.39934 3.74187 5.67824 3.76614 5.95913C3.77514 6.35287 3.56477 6.12788 3.57377 5.93156C3.6187 5.68284 3.61621 5.42786 3.56645 5.18006C3.53214 5.07712 3.49164 5.05294 3.4067 5.07319C3.3392 5.06475 3.16877 5.27569 3.12095 5.62556C3.09593 5.73844 3.07715 5.85262 3.0647 5.96756C3.03995 6.14644 2.93477 6.27356 2.86108 5.93944C2.79583 5.697 2.75758 5.10075 2.6507 5.23969" fill="white"/>
<path d="M3.804 7.14769C3.42881 7.35863 3.06431 7.54931 2.69531 7.74788C2.7576 7.54888 2.87169 7.37003 3.02589 7.22967C3.18009 7.08931 3.36885 6.99248 3.57281 6.94913C3.79781 6.957 3.74156 7.04869 3.804 7.14769Z" fill="white"/>
<path d="M5.2152 4.51632C5.19072 4.52137 5.16693 4.5293 5.14433 4.53995C5.08694 4.55987 5.03946 4.60117 5.01179 4.65525C4.98412 4.70933 4.9784 4.772 4.99583 4.8302C5.1027 5.56145 5.17076 6.11832 5.27708 6.84563C5.29564 6.93338 5.23039 7.04476 5.14883 7.03688C5.00876 6.92945 4.97389 6.71063 4.73539 6.72245C4.63468 6.74281 4.54275 6.79387 4.47224 6.86861C4.40173 6.94335 4.3561 7.0381 4.34164 7.13982C4.30953 7.2972 4.30953 7.45944 4.34164 7.61682C4.38407 7.67829 4.44653 7.72312 4.51835 7.74364C4.59017 7.76416 4.66689 7.7591 4.73539 7.72932C4.84001 7.68151 4.9272 7.56057 4.96433 7.59038C4.98739 7.6382 4.96095 8.01957 4.47045 8.30982C4.16726 8.46057 3.92764 8.50051 3.79545 8.22207C3.7167 8.0477 3.80164 7.38732 3.60533 7.53863C3.02145 9.23176 4.97164 9.47026 5.19045 7.61007C5.20451 7.55832 5.2467 7.50657 5.27876 7.51895C5.29339 7.52682 5.30351 7.54651 5.30689 7.58645C5.26189 9.26776 3.79883 9.37913 3.55076 8.85432C3.49063 8.67083 3.46099 8.47872 3.46301 8.28563C3.46279 8.21874 3.44197 8.15353 3.40339 8.09888C3.34376 8.05163 3.26445 8.1827 3.24645 8.40938C3.22855 8.54359 3.22272 8.67913 3.22901 8.81438C3.30664 10.1503 5.19101 9.5777 5.4987 8.47688C5.55937 8.12974 5.57637 7.77637 5.54933 7.42501H5.55551L5.56001 7.42107C5.7507 7.64607 6.01001 7.44863 6.06908 7.37326C6.07528 7.36202 6.08406 7.35241 6.09471 7.34523C6.10535 7.33805 6.11755 7.33351 6.13029 7.33197C6.14304 7.33043 6.15597 7.33195 6.16801 7.33639C6.18006 7.34083 6.19088 7.34807 6.19958 7.35751C6.23633 7.38694 6.27976 7.40687 6.32603 7.41554C6.37231 7.42422 6.42001 7.42137 6.46492 7.40725C6.50983 7.39313 6.55058 7.36818 6.58357 7.33458C6.61656 7.30099 6.64077 7.2598 6.65408 7.21463C6.68717 7.00525 6.70839 6.79416 6.71764 6.58238C6.6437 6.5985 6.57431 6.63098 6.51458 6.67745C6.50665 6.68653 6.50139 6.69762 6.49939 6.70951C6.49208 6.76576 6.4842 6.82876 6.4752 6.88838C6.47415 6.8937 6.47284 6.89895 6.47126 6.90413C6.46679 6.91126 6.46034 6.91693 6.4527 6.92045C6.44369 6.92655 6.43321 6.93015 6.42235 6.93086C6.41149 6.93158 6.40063 6.92939 6.3909 6.92452C6.38116 6.91965 6.3729 6.91228 6.36695 6.90316C6.36101 6.89404 6.3576 6.88351 6.35708 6.87263C6.31264 6.64763 6.12701 6.60995 6.01395 6.9677C5.93633 7.0397 5.8002 7.05151 5.78501 6.95195C5.8047 6.70951 5.71695 6.67745 5.54483 6.78882C5.48858 6.31182 5.43233 5.85901 5.37608 5.38257C5.4492 5.38257 5.51333 5.4422 5.58026 5.35051C5.51981 5.068 5.41702 4.79625 5.27539 4.54445C5.2712 4.53876 5.26669 4.53332 5.26189 4.52813C5.26068 4.52804 5.25953 4.52763 5.25854 4.52693C5.25755 4.52624 5.25676 4.5253 5.25626 4.5242H5.24951C5.24614 4.52026 5.24051 4.52026 5.23995 4.51632C5.23095 4.51632 5.22308 4.51238 5.2152 4.51632ZM4.69095 7.12801C4.71385 7.12586 4.73677 7.13184 4.75569 7.14491C4.77462 7.15797 4.78834 7.17728 4.79445 7.19945C4.80133 7.2208 4.80298 7.24349 4.79926 7.26561C4.79554 7.28774 4.78656 7.30864 4.77308 7.32657C4.75789 7.3547 4.70839 7.34288 4.67126 7.34288C4.65253 7.34464 4.6337 7.34062 4.61731 7.33137C4.60092 7.32212 4.58776 7.30808 4.57958 7.29113C4.56608 7.24726 4.6032 7.20338 4.6212 7.16795C4.6392 7.13251 4.62458 7.16007 4.62739 7.15613C4.6457 7.14128 4.66764 7.13157 4.69095 7.12801Z" fill="white"/>
<path d="M6.52913 4.47638C6.48305 4.48088 6.43831 4.49445 6.3975 4.51632C6.3502 4.566 6.32051 4.62983 6.31299 4.69801C6.30547 4.76619 6.32054 4.83496 6.35588 4.89375C6.43013 4.92975 6.50438 5.0175 6.45375 5.0625C6.24563 5.31338 5.69944 5.7375 5.67188 5.814V5.81794V5.82188H5.67638C5.81105 5.84489 5.94853 5.84622 6.08363 5.82582V5.82188C6.3296 5.58679 6.5554 5.33146 6.75863 5.05857C6.73106 5.031 6.70238 5.01075 6.67481 4.98319C6.66824 4.97792 6.66294 4.97124 6.6593 4.96365C6.65565 4.95605 6.65376 4.94774 6.65376 4.93932C6.65376 4.93089 6.65565 4.92258 6.6593 4.91498C6.66294 4.90739 6.66824 4.90071 6.67481 4.89544C6.72783 4.84755 6.75994 4.78078 6.76425 4.70947C6.76857 4.63815 6.74473 4.568 6.69788 4.51407C6.64629 4.48601 6.58767 4.4735 6.52913 4.47807M6.50325 4.69688C6.53756 4.69294 6.5775 4.73288 6.59775 4.78013C6.618 4.82738 6.60844 4.88363 6.57469 4.89544C6.54094 4.90725 6.49425 4.86788 6.47175 4.81613C6.44925 4.76438 6.46162 4.70869 6.49706 4.70082C6.49706 4.70082 6.49706 4.69688 6.50325 4.69688Z" fill="white"/>
<path d="M2.73329 8.34864C2.63959 8.51371 2.5812 8.69644 2.56184 8.88526C2.54247 9.07408 2.56255 9.26486 2.62079 9.44551C2.6463 9.48256 2.68263 9.51083 2.72482 9.52643C2.76701 9.54204 2.81299 9.54423 2.85647 9.5327C2.98641 9.46914 3.04491 9.17101 3.01285 9.06414C2.96954 8.98426 2.93522 8.97245 2.89079 9.03995C2.80022 9.24695 2.76141 9.10351 2.75297 8.9837C2.74246 8.78724 2.75075 8.59022 2.77772 8.39533C2.80079 8.23276 2.77772 8.28001 2.73216 8.34808" fill="white"/>
<path d="M11.629 7.75238C11.4287 7.26301 11.1497 6.78207 11.0614 6.59926C10.9731 6.41645 10.3032 5.32351 10.2042 5.19638C9.98593 4.90613 10.5574 5.31957 10.1316 4.73907C9.97074 4.58382 9.96287 4.57595 9.82393 4.44882C9.75868 4.39257 9.59049 4.29807 9.56349 4.4567C9.54814 4.57195 9.55289 4.689 9.57755 4.80263C9.61992 4.90803 9.67671 5.00704 9.7463 5.09682C10.4627 6.16195 11.0856 7.28701 11.6082 8.45945C11.7004 8.4122 11.6807 7.83563 11.6262 7.75238" fill="white"/>
<path d="M10.7495 9.38195C10.7084 9.42976 10.8457 9.64801 11.0251 9.64408C11.3227 9.60864 11.5876 9.41908 11.8284 8.9207C11.9286 8.7505 11.9914 8.56082 12.0123 8.36439C12.0423 7.42248 11.9751 6.47998 11.8115 5.55189C11.8011 5.48717 11.8036 5.42102 11.8188 5.35726C11.8379 5.3297 11.9038 5.35726 11.9381 5.2937C11.9904 5.23408 11.8036 4.7492 11.6973 4.56245C11.6596 4.47864 11.6461 4.42351 11.5848 4.57033C11.5088 4.73726 11.4729 4.91971 11.4802 5.10301C11.6225 6.20833 11.6658 7.18426 11.7614 8.28676C11.7774 8.40034 11.7527 8.51588 11.6917 8.61301C11.4389 8.93605 11.1179 9.19936 10.7518 9.3842" fill="white"/>
<path d="M14.167 10.9974C13.9516 11.1369 13.9516 11.2995 14.1265 11.3034C14.3045 11.3077 14.4806 11.2656 14.6374 11.1813C14.7942 11.097 14.9263 10.9733 15.0209 10.8225C15.1065 10.6268 15.1555 10.4171 15.1655 10.2038C15.2059 9.1873 15.1516 8.16929 15.0035 7.16288C14.9844 7.06861 14.9744 6.97274 14.9737 6.87657C14.9939 6.82482 15.0901 6.88444 15.1227 6.82032C15.1756 6.76407 14.8735 6.32363 14.7655 6.13688C14.7295 6.05307 14.716 5.99738 14.653 6.14869C14.582 6.31533 14.5605 6.49891 14.5912 6.67744C14.7511 7.81628 14.8509 8.96274 14.8904 10.1121C14.8828 10.208 14.8628 10.3026 14.8308 10.3933C14.7489 10.5329 14.651 10.6625 14.5388 10.7792C14.4398 10.8585 14.2328 10.9378 14.1659 10.9974" fill="white"/>
<path d="M14.9348 8.29688C14.9314 8.01563 14.9421 7.77207 14.9314 7.56113C14.9208 7.35019 14.8369 6.56325 14.8105 6.39675C14.7841 6.23025 14.7509 5.9715 14.7104 5.76844C14.6868 5.65062 14.6744 5.53084 14.6733 5.41069C14.689 5.35444 14.7582 5.41463 14.7891 5.34713C14.7537 5.03744 14.6582 4.73764 14.5079 4.46457C14.4691 4.38132 14.3954 4.40832 14.3059 4.54444C14.2204 4.63163 14.2497 4.83019 14.284 5.02144C14.5181 6.26499 14.6319 7.5282 14.6238 8.79357C14.6114 8.89313 14.9382 8.48757 14.9348 8.29688Z" fill="white"/>
<path d="M13.3551 6.73819C13.2195 6.73426 12.9372 6.44401 12.855 6.27357C12.8303 6.19073 12.8359 6.10179 12.8708 6.02269C12.9208 5.98726 12.9979 5.94338 13.0547 5.98726C13.0547 5.98726 13.1143 6.07838 13.1031 6.09076C13.1762 6.13013 13.2083 6.10651 13.2156 6.07051C13.2201 6.01426 13.1925 5.97938 13.1925 5.91582C13.2235 5.73694 13.4029 5.71276 13.4738 5.82413C13.5222 5.92036 13.5479 6.02637 13.5492 6.13407C13.5492 6.18582 13.4755 6.12619 13.4367 6.13801C13.3978 6.14982 13.3855 6.20213 13.3804 6.25051C13.3714 6.38157 13.359 6.58463 13.3573 6.73932" fill="white"/>
<path d="M10.8683 8.61075C10.9065 8.22488 10.8559 7.44581 10.8525 7.21969C10.8402 6.687 10.7609 5.65706 10.7254 5.48606C10.6827 5.16038 10.843 5.52206 10.8199 5.33138C10.7493 5.02624 10.6132 4.74009 10.4211 4.49269C10.3615 4.39706 10.3649 4.37738 10.2692 4.51631C10.2084 4.73002 10.2127 4.95701 10.2816 5.16825C10.4102 5.79222 10.494 6.42458 10.5325 7.0605C10.5731 7.73026 10.5782 8.40171 10.5477 9.072C10.6495 9.072 10.812 8.88525 10.8683 8.61075Z" fill="white"/>
<path d="M15.3952 7.99482C15.1595 7.54482 14.7995 7.02057 14.7044 6.8417C14.6094 6.66282 13.7971 5.32745 13.6959 5.21045C13.3989 4.86451 13.832 5.1542 13.6396 4.88026C13.5361 4.74131 13.4185 4.6135 13.2886 4.49888C13.2194 4.45107 13.1761 4.35151 13.1536 4.51463C13.1413 4.65998 13.1378 4.80593 13.1429 4.9517C13.1585 5.05049 13.1992 5.14364 13.261 5.22226C14.063 6.32269 14.7754 7.48574 15.3912 8.7002C15.4812 8.65295 15.4503 8.07638 15.3946 7.99707" fill="white"/>
<path d="M12.5194 12.2524C12.4776 12.265 12.4402 12.2891 12.4114 12.3219C12.3826 12.3548 12.3636 12.395 12.3566 12.4382C12.3497 12.4813 12.355 12.5255 12.3719 12.5657C12.3889 12.606 12.4168 12.6407 12.4525 12.6658C10.2334 12.6658 6.8275 12.6259 6.10019 12.6259C5.69013 12.6259 4.39919 12.5696 4.375 12.5696C4.50336 12.7654 4.68402 12.9213 4.89649 13.0197C5.10896 13.118 5.34473 13.1548 5.57706 13.1259C6.56369 13.1259 11.1284 13.1141 12.4261 13.1141C12.3932 13.2026 12.3835 13.2979 12.3979 13.3911C12.4123 13.4844 12.4502 13.5724 12.5082 13.6468L12.5133 13.6508C12.514 13.6522 12.5151 13.6533 12.5165 13.654C12.518 13.6547 12.5196 13.655 12.5211 13.6547H12.5251C12.6117 13.6789 12.6494 13.6069 12.6798 13.5596C13.0114 13.5782 13.3439 13.5769 13.6754 13.5557C13.7243 13.635 13.7738 13.7104 13.8655 13.6986C14.0275 13.6586 14.1546 13.6389 14.1602 13.2694C14.1602 13.2694 14.1434 12.6411 13.7755 12.681C13.6883 12.6928 13.4447 12.7209 13.4447 12.7209C13.1635 12.6849 12.9537 12.681 12.6364 12.6647C12.6663 12.6248 12.7169 12.4538 12.6539 12.3941C12.6434 12.3853 12.6313 12.3787 12.6183 12.3747C12.6052 12.3706 12.5915 12.3692 12.5779 12.3705H12.5718C12.5718 12.3705 12.5667 12.3666 12.565 12.3626V12.3587C12.5505 12.3238 12.5387 12.2879 12.5296 12.2513H12.5222M12.673 13.1513C12.9948 13.167 13.2985 13.1552 13.6236 13.1709C13.6434 13.1977 13.6534 13.2306 13.6519 13.2638C13.6503 13.2971 13.6374 13.3289 13.6152 13.3538C13.6152 13.3577 13.6107 13.3577 13.6107 13.3577H13.6017C13.4965 13.3538 13.4363 13.3538 13.3311 13.3498C13.3311 13.3419 13.3278 13.338 13.3278 13.3301C13.3019 13.2463 13.123 13.2548 13.0791 13.3223V13.3262V13.3341V13.3419C13.078 13.3458 13.078 13.3499 13.0791 13.3538C12.9411 13.3625 12.8026 13.3572 12.6657 13.338C12.6258 13.2818 12.6302 13.1788 12.6792 13.1513" fill="white"/>
<path d="M6.90839 4.85831C6.69295 5.54963 7.03327 6.31294 7.26839 6.2415C7.43714 6.31688 7.5457 5.95125 7.61658 5.55356C7.66495 5.44106 7.70039 5.43038 7.72514 5.48606C7.71783 6.01875 7.75833 6.138 7.87983 6.29719C7.91242 6.33217 7.95173 6.36021 7.99543 6.37963C8.03912 6.39904 8.08628 6.40943 8.13409 6.41016C8.18189 6.4109 8.22935 6.40197 8.27362 6.38391C8.31789 6.36585 8.35805 6.33903 8.3917 6.30506C8.40914 6.28931 8.60264 6.0705 8.60264 6.0705C8.61288 6.05721 8.6259 6.04631 8.64079 6.03856C8.65568 6.03082 8.67208 6.02642 8.68884 6.02567C8.70561 6.02492 8.72233 6.02784 8.73786 6.03422C8.75338 6.0406 8.76732 6.0503 8.7787 6.06263C8.84114 6.12619 8.83495 6.2415 8.97108 6.31688C9.04298 6.34496 9.12172 6.35054 9.19686 6.33286C9.272 6.31518 9.33999 6.27508 9.39183 6.21788C9.46945 6.0705 9.48633 6.01875 9.52177 5.96306C9.57802 5.87981 9.67139 5.91581 9.67139 5.94338C9.66295 5.99119 9.61008 6.03506 9.64439 6.11831C9.71189 6.17456 9.72708 6.138 9.76645 6.12619C9.9037 6.05081 10.0072 5.71669 10.0072 5.71669C10.0117 5.58956 9.95095 5.60138 9.9082 5.6295C9.85702 5.66494 9.85195 5.67731 9.8002 5.71275C9.73383 5.72063 9.60333 5.77238 9.54033 5.661C9.47339 5.526 9.47339 5.33531 9.42164 5.20031C9.42164 5.19244 9.33558 4.98938 9.41658 4.97531C9.45652 4.98319 9.54314 5.01075 9.55777 4.9275C9.60164 4.84819 9.46608 4.61756 9.37439 4.50619C9.358 4.4822 9.33623 4.46239 9.31081 4.44832C9.2854 4.43425 9.25704 4.42633 9.22802 4.42518C9.19899 4.42403 9.1701 4.42969 9.14365 4.44171C9.1172 4.45372 9.09393 4.47176 9.0757 4.49438C9.02241 4.56533 8.9943 4.65203 8.99583 4.74075C8.98391 4.79835 8.98411 4.8578 8.99641 4.91533C9.00871 4.97285 9.03284 5.02718 9.06727 5.07488C9.19543 5.2772 9.25464 5.51559 9.23602 5.75438C9.21426 5.79334 9.1824 5.82571 9.1438 5.84808C9.10519 5.87046 9.06126 5.882 9.01664 5.8815C8.96039 5.86575 8.86477 5.83763 8.81414 5.42419C8.82609 5.09861 8.78931 4.77308 8.70502 4.45838C8.6617 4.33125 8.63133 4.20806 8.52614 4.42688C8.48032 4.49574 8.45092 4.5742 8.44019 4.65621C8.42946 4.73823 8.4377 4.82161 8.46427 4.89994C8.54514 5.1361 8.56829 5.38819 8.53177 5.63513C8.49594 5.70628 8.45377 5.77405 8.40577 5.83763C8.37536 5.87746 8.33065 5.9039 8.2811 5.91135C8.23155 5.9188 8.18104 5.90669 8.14027 5.87756C8.09475 5.85188 8.05624 5.81542 8.02809 5.77139C7.99994 5.72736 7.98303 5.67709 7.97883 5.625C7.99755 5.35312 7.98869 5.08004 7.95239 4.80994C7.88827 4.65863 7.7797 4.71431 7.7347 4.75819C7.52356 5.02413 7.38603 5.3409 7.33589 5.67675C7.27402 5.89894 7.2082 5.83538 7.16264 5.74425C7.05014 5.62894 7.04339 4.70644 6.90839 4.85775" fill="white"/>
<path d="M7.6346 6.29325C7.6346 6.29719 7.63179 6.29719 7.62841 6.29719V6.30113C7.61435 6.309 7.59579 6.33713 7.55866 6.36863C7.52719 6.41087 7.50476 6.45914 7.49276 6.51043C7.48076 6.56172 7.47945 6.61494 7.48891 6.66675C7.49173 6.687 7.60704 7.04869 7.70716 7.30688C7.79104 7.5863 7.81932 7.87945 7.79041 8.16975C7.62957 8.54271 7.36003 8.85851 7.01698 9.07594C6.96693 9.10125 6.91162 9.11444 6.85554 9.11444C6.79945 9.11444 6.74415 9.10125 6.6941 9.07594V9.072C6.66313 9.04779 6.63886 9.01607 6.6236 8.97984C6.60834 8.94361 6.6026 8.90408 6.60691 8.865C6.95261 8.65215 7.22427 8.33787 7.38485 7.965C7.4607 7.75519 7.46799 7.52672 7.40566 7.3125C7.3862 7.20395 7.34085 7.10169 7.27348 7.01438C7.27348 7.01438 7.27348 7.01438 7.27348 7.01044C7.31679 6.98682 7.42873 7.08188 7.44729 7.02225C7.41475 6.85119 7.33707 6.69194 7.22229 6.561C7.20739 6.53913 7.18773 6.5209 7.16478 6.5077C7.14184 6.4945 7.1162 6.48666 7.0898 6.48476C7.0634 6.48287 7.03691 6.48697 7.01231 6.49677C6.98772 6.50656 6.96566 6.52179 6.94779 6.54132C6.85498 6.60094 6.83529 6.81188 6.8786 6.99863C6.92923 7.13363 7.06591 7.15782 7.16323 7.43569V7.43963C7.18178 7.53628 7.17598 7.63603 7.14635 7.72988C6.98127 7.95961 6.78537 8.16554 6.56416 8.34188L6.56023 8.34582V8.35032H6.55404C6.55404 8.34582 6.55404 8.34582 6.55404 8.34582C6.5562 8.31548 6.5562 8.28503 6.55404 8.25469C6.55404 8.17538 6.58273 7.98413 6.58048 7.94869V7.94475C6.41454 8.06794 6.35548 8.44144 6.32679 8.55282C5.9039 8.81637 5.50822 9.12124 5.14554 9.46294C5.00041 9.71382 6.14173 9.16875 6.27054 9.10519C6.27054 9.10519 6.27391 9.10519 6.2756 9.10913C6.29973 9.19122 6.33393 9.27001 6.37741 9.34369C6.44403 9.44033 6.53903 9.51389 6.64927 9.5542C6.75951 9.59451 6.87955 9.59957 6.99279 9.56869C7.36752 9.38738 7.67812 9.0962 7.88323 8.73394C7.91698 8.67769 7.97154 8.63438 8.02048 8.67769C8.13842 8.90849 8.31955 9.10099 8.54274 9.23275C8.76593 9.36452 9.02199 9.43011 9.28104 9.42188C9.42335 9.22669 9.35641 9.12769 9.29791 9.09169C9.27935 9.07594 8.99023 8.94882 8.94635 8.82169C8.91879 8.70638 8.98573 8.60288 9.12466 8.523C9.52052 8.48193 9.91074 8.398 10.2885 8.27269C10.302 8.11594 10.3454 7.96321 10.4162 7.82269C10.4308 7.79082 10.4535 7.76329 10.482 7.74282C10.482 7.74282 10.482 7.74282 10.482 7.73888V7.73494C10.4824 7.73234 10.4824 7.72967 10.482 7.72707L10.4162 7.68319L9.15166 7.67532C9.13903 7.67036 9.12711 7.66373 9.11623 7.65563V7.65169V7.64775V7.64382V7.63988V7.63594C9.11623 7.632 9.11623 7.632 9.11623 7.632C9.12614 7.61855 9.14015 7.60868 9.15616 7.60388C9.45991 7.56 9.99541 7.461 10.0303 6.87657C10.0396 6.81073 10.0352 6.7437 10.0175 6.67961C9.99986 6.61552 9.96922 6.55574 9.92752 6.50396C9.88581 6.45219 9.83393 6.40952 9.77507 6.3786C9.71622 6.34768 9.65165 6.32916 9.58535 6.32419C9.45875 6.35135 9.34761 6.42655 9.27533 6.53398C9.20304 6.64141 9.17525 6.77269 9.19779 6.90019C9.1871 6.97613 9.22254 7.13082 9.15166 7.14657C8.68591 7.19832 8.17854 7.52457 8.15998 7.75913H8.15379L8.15041 7.76307H8.14423L8.1386 7.75913C8.11481 7.74446 8.09611 7.72283 8.08504 7.69717C8.07397 7.67151 8.07107 7.64306 8.07673 7.61569C8.05542 7.19252 7.94643 6.7784 7.75666 6.39957C7.69254 6.32419 7.66329 6.29607 7.64416 6.29213H7.63629M9.48523 6.813C9.52052 6.80937 9.55589 6.81922 9.58423 6.84057C9.60653 6.85184 9.62545 6.8688 9.63909 6.88975C9.65272 6.91069 9.66057 6.93486 9.66185 6.95982V6.96769V6.97163V6.975C9.66185 6.975 9.65735 6.97894 9.65398 6.98288C9.62923 7.01044 9.57523 7.0065 9.52123 6.9705C9.50042 6.95909 9.48257 6.94297 9.4691 6.92344C9.45562 6.90391 9.44689 6.8815 9.4436 6.858V6.8535C9.4436 6.84563 9.44698 6.84169 9.44923 6.84169L9.4526 6.83382C9.4526 6.82988 9.4526 6.82988 9.45879 6.82594C9.46267 6.82202 9.46733 6.81895 9.47246 6.81691C9.47759 6.81488 9.48309 6.81393 9.4886 6.81413M8.31241 8.0145H8.32479C8.49908 8.05145 8.67611 8.07402 8.8541 8.082C9.00091 8.09382 9.07348 8.22094 8.93623 8.27663C8.79898 8.33232 8.67016 8.36832 8.67016 8.59107C8.68875 8.65327 8.68875 8.71955 8.67016 8.78175C8.67016 8.78569 8.66679 8.78963 8.66454 8.78963V8.79357V8.7975H8.6606L8.65441 8.80144C8.65407 8.80254 8.6534 8.8035 8.6525 8.8042C8.65159 8.80491 8.6505 8.80532 8.64935 8.80538C8.6156 8.80932 8.56891 8.76994 8.53291 8.75363C8.43609 8.68704 8.35466 8.60047 8.29411 8.49975C8.23356 8.39903 8.19531 8.28651 8.18191 8.16975C8.18022 8.15089 8.18229 8.13188 8.18802 8.11382C8.19374 8.09577 8.20299 8.07903 8.21524 8.06458C8.22749 8.05014 8.24248 8.03827 8.25936 8.02967C8.27624 8.02108 8.29465 8.01592 8.31354 8.0145" fill="white"/>
<path d="M4.24237 4.8662C4.38918 4.94157 4.662 4.91007 4.65075 4.64739C4.65075 4.62376 4.64625 4.54445 4.64456 4.5242C4.61587 4.44489 4.53206 4.46064 4.51518 4.54445C4.509 4.56807 4.52418 4.61195 4.50393 4.6277C4.48368 4.64345 4.44487 4.63164 4.44768 4.5602C4.44626 4.53714 4.43804 4.51503 4.42406 4.49664C4.41969 4.49176 4.41412 4.4881 4.40791 4.48603C4.40169 4.48396 4.39505 4.48354 4.38862 4.48482C4.36893 4.48876 4.36893 4.4927 4.35993 4.51239C4.35295 4.53151 4.34915 4.55166 4.34868 4.57201C4.34531 4.59957 4.33518 4.60801 4.31831 4.61195C4.30143 4.61589 4.30537 4.61589 4.2885 4.60407C4.28062 4.5917 4.26712 4.58776 4.26712 4.56807C4.26675 4.54673 4.2645 4.52546 4.26037 4.50451C4.25125 4.49268 4.23834 4.48434 4.22381 4.48089C4.14337 4.48089 4.13831 4.58382 4.14337 4.62376C4.13662 4.63164 4.13437 4.81445 4.24237 4.8662Z" fill="white"/>
<path d="M8.51362 6.90131C8.65931 6.97725 9.00581 6.93338 8.92256 6.67631C8.92165 6.63512 8.91864 6.59401 8.91356 6.55312C8.88487 6.47381 8.80444 6.4935 8.78475 6.57337C8.78025 6.60094 8.796 6.64481 8.77519 6.66056C8.75437 6.67631 8.71556 6.66056 8.71894 6.58912C8.71746 6.56728 8.7092 6.54643 8.69531 6.5295C8.69108 6.52509 8.68587 6.52173 8.68011 6.51968C8.67435 6.51763 8.66819 6.51694 8.66212 6.51769C8.643 6.52162 8.643 6.52556 8.63175 6.54525C8.62559 6.56457 8.622 6.58462 8.62106 6.60487C8.62106 6.633 8.60925 6.64087 8.59181 6.64481C8.57437 6.64875 8.57944 6.64875 8.56256 6.63694C8.54569 6.62512 8.54119 6.62119 8.54119 6.60094C8.54193 6.57934 8.53869 6.5578 8.53162 6.53737C8.52337 6.52516 8.51064 6.51668 8.49619 6.51375C8.41744 6.51375 8.41294 6.61669 8.41575 6.65662C8.41125 6.66056 8.40787 6.84338 8.51587 6.89906" fill="white"/>
<path d="M11.0075 6.05869C11.1526 6.13407 11.4265 6.09863 11.4153 5.83369C11.4153 5.81401 11.4108 5.7347 11.4091 5.71051C11.3782 5.63513 11.2966 5.65088 11.2797 5.73469C11.273 5.75832 11.2882 5.8022 11.2668 5.81401C11.2561 5.82976 11.2105 5.82188 11.2105 5.74651C11.2077 5.72377 11.1996 5.70201 11.1869 5.68294C11.1767 5.67897 11.1657 5.67761 11.1549 5.67901C11.1357 5.67901 11.1357 5.68294 11.1239 5.70263C11.1174 5.72323 11.1136 5.74461 11.1127 5.76619C11.1127 5.79038 11.102 5.79826 11.0834 5.80219C11.0649 5.80613 11.0682 5.80613 11.0553 5.79432C11.049 5.79054 11.0438 5.78527 11.0401 5.779C11.0364 5.77272 11.0342 5.76561 11.0339 5.75832C11.0332 5.73554 11.03 5.7129 11.0244 5.69082C11.0138 5.68304 11.0017 5.67766 10.9889 5.67507C10.9096 5.67507 10.9029 5.77801 10.9085 5.81401C10.9029 5.82188 10.8995 6.00469 11.008 6.05644" fill="white"/>
<path d="M12.2958 8.16976C12.2086 8.31421 12.1557 8.4767 12.1409 8.64479C12.1262 8.81288 12.1501 8.9821 12.2109 9.13951C12.2653 9.30602 12.3763 9.44817 12.5248 9.54114C12.5467 9.56495 12.5739 9.58321 12.6043 9.5944C12.6346 9.60559 12.6672 9.60939 12.6993 9.60549C12.7314 9.60158 12.7621 9.59009 12.7889 9.57195C12.8157 9.55382 12.8377 9.52956 12.8533 9.5012C13.0018 9.32626 13.0057 8.88526 13.0743 8.79751C13.125 8.63439 13.247 8.66251 13.3067 8.73395C13.3608 8.81849 13.4337 8.88935 13.5198 8.94095C13.5481 8.97443 13.5827 9.00195 13.6217 9.02189C13.6607 9.04183 13.7033 9.0538 13.747 9.0571C13.7907 9.0604 13.8345 9.05497 13.8761 9.04111C13.9176 9.02725 13.956 9.00525 13.989 8.97639C14.1126 8.89805 14.202 8.77589 14.2393 8.63439C14.2937 7.96539 14.2999 7.29334 14.2578 6.62345C14.2505 6.57564 14.1138 5.79658 14.1138 5.78814C14.1138 5.7797 14.0942 5.39101 14.0801 5.29932C14.0767 5.25995 14.0688 5.24758 14.1043 5.25208C14.1414 5.29145 14.1448 5.29539 14.1684 5.30326C14.2055 5.3117 14.2393 5.2397 14.2173 5.1722C14.1048 4.9337 13.985 4.69126 13.8692 4.4567C13.8427 4.42126 13.8056 4.3892 13.76 4.46064C13.7325 4.48912 13.7109 4.52277 13.6964 4.55965C13.6819 4.59652 13.6749 4.6359 13.6757 4.67551C13.6863 4.84426 13.7128 5.02145 13.7223 5.19245C13.769 5.48214 13.8152 5.77632 13.8618 6.07051C13.9052 6.69489 13.9181 7.26695 13.9608 7.89133C13.9709 8.11698 13.9189 8.34108 13.8107 8.53933C13.8107 8.53933 13.7088 8.61076 13.6385 8.53539C13.541 8.41679 13.4555 8.28886 13.3832 8.15345C13.2785 8.04658 13.2088 8.07414 13.1345 8.15345C12.951 8.44122 12.8049 8.75122 12.6997 9.07595C12.6626 9.13951 12.5619 9.1952 12.4505 9.07201C12.3034 8.79649 12.2492 8.48084 12.2958 8.17201" fill="white"/>
<path d="M11.0733 4.52419C11.1445 4.58514 11.1993 4.66291 11.2328 4.75044C11.2663 4.83797 11.2774 4.93248 11.2651 5.02538C11.2386 5.20426 11.1706 5.40282 11.12 5.37526C11.0693 5.34769 11.156 5.19638 11.1059 5.03326C11.075 4.92582 10.8983 4.73513 10.9169 4.67551C10.9093 4.6539 10.9081 4.63058 10.9134 4.6083C10.9187 4.58603 10.9302 4.56573 10.9467 4.54981C10.9631 4.53389 10.9838 4.52302 11.0062 4.51848C11.0286 4.51394 11.0519 4.51592 11.0733 4.52419Z" fill="white"/>
<path d="M12.7173 8.34862C12.7293 8.08581 12.7201 7.82246 12.6898 7.56112C12.6819 7.35469 12.4805 5.64862 12.4378 5.49C12.3883 5.19244 12.6352 5.45062 12.6065 5.27569C12.5222 5.05687 12.3101 4.73512 12.2443 4.54444C12.2021 4.46062 12.2195 4.38919 12.1318 4.52419C12.0548 4.7654 12.0274 5.01969 12.0513 5.27175C12.3036 6.45327 12.4377 7.65694 12.4518 8.865C12.5525 8.865 12.669 8.60681 12.7196 8.34862" fill="white"/>
<path d="M14.3343 6.56944C14.4564 6.64088 14.525 7.01044 14.5121 7.11788C14.489 7.31251 14.426 7.52344 14.3804 7.49532C14.3349 7.46719 14.39 7.20563 14.3664 7.12576C14.3377 7.01044 14.1774 6.80007 14.1937 6.7365C14.1611 6.60488 14.2646 6.54975 14.3343 6.56775" fill="white"/>
<path d="M6.10121 7.67251C6.21371 7.72032 6.28121 7.99482 6.26996 8.07413C6.2469 8.21701 6.18671 8.36832 6.14396 8.35538C6.10121 8.34245 6.15409 8.14051 6.1299 8.08088C6.12146 7.93407 5.96115 7.85588 5.96678 7.79457C5.9364 7.67926 6.0309 7.65957 6.1029 7.67532" fill="white"/>
<path d="M3.05615 4.43308C3.2249 4.48933 3.2339 4.76664 3.2249 4.85045C3.20184 4.99726 3.14165 5.15645 3.09777 5.13676C3.0539 5.11708 3.09777 4.91795 3.07415 4.85551C3.04996 4.76383 2.9054 4.60914 2.92452 4.56133C2.8919 4.46176 2.98809 4.41395 3.05784 4.4342" fill="white"/>
<path d="M6.37661 5.74482C6.31055 5.79677 6.26461 5.87007 6.24665 5.95216C6.22869 6.03425 6.23983 6.12004 6.27817 6.19482C6.30035 6.22793 6.33275 6.25288 6.37042 6.26588C6.40809 6.27888 6.44898 6.27921 6.48686 6.26682C6.61342 6.28651 6.68823 6.0002 6.68823 6.0002C6.68823 6.0002 6.69217 5.92088 6.54367 6.07163C6.47954 6.08795 6.47167 6.05982 6.45536 6.01988C6.44038 5.94551 6.44702 5.86841 6.47448 5.7977C6.49754 5.7257 6.44917 5.6942 6.37661 5.74595" fill="white"/>
<path d="M7.34302 4.32563C7.28674 4.37137 7.24032 4.42806 7.20657 4.49225C7.17283 4.55645 7.15246 4.62683 7.14671 4.69913C7.14165 4.79476 7.12534 4.79476 7.18215 4.85832C7.22434 4.92582 7.26596 4.91794 7.34809 4.86619C7.3692 4.85139 7.38714 4.83253 7.40085 4.81069C7.41457 4.78886 7.42379 4.76451 7.42796 4.73907C7.44821 4.62657 7.32446 4.79082 7.30759 4.66763C7.28115 4.55232 7.3599 4.50844 7.43584 4.39313C7.43584 4.31776 7.43584 4.26601 7.34302 4.32563Z" fill="white"/>
<path d="M8.12156 4.48088C8.09061 4.6234 8.07179 4.7683 8.06531 4.914C8.04225 5.02144 8.16712 5.06869 8.22168 4.92975C8.2779 4.77826 8.30777 4.61826 8.31 4.45669C8.28525 4.29356 8.18625 4.302 8.12156 4.48088Z" fill="white"/>
<path d="M13.0303 7.29113C13.0483 7.27482 13.7222 6.73426 13.7222 6.73426C13.7914 6.70669 13.7785 7.0155 13.7453 7.00875C13.5409 7.23578 13.2991 7.42605 13.0303 7.57125C12.9977 7.59544 12.964 7.36088 13.0303 7.29338" fill="white"/>
<path d="M13.648 7.2872C13.7684 7.3547 13.8168 7.74395 13.8021 7.8497C13.8066 8.0567 13.6896 8.2232 13.6413 8.19958C13.5929 8.17595 13.6463 7.94139 13.6233 7.85758C13.5711 7.73096 13.5334 7.59888 13.5108 7.46383C13.477 7.3322 13.5749 7.26076 13.6475 7.28495" fill="white"/>
<path d="M9.63287 8.97244C9.68831 8.90202 9.7528 8.83922 9.82468 8.78569C9.84634 8.77481 9.87104 8.77161 9.89476 8.77661C9.91847 8.78162 9.93978 8.79454 9.95518 8.81325C9.96699 8.88525 9.91356 8.95669 9.93043 9.05569C9.94393 9.09563 9.95518 9.14344 10.0204 9.12375C10.063 9.08612 10.1128 9.05754 10.1667 9.03975C10.2207 9.02196 10.2777 9.01532 10.3343 9.02025C10.4187 9.02025 10.4192 9.17888 10.3692 9.17888C10.2207 9.21973 10.077 9.2763 9.94056 9.34763C9.92142 9.36139 9.89763 9.36704 9.87435 9.36335C9.85107 9.35966 9.83019 9.34694 9.81624 9.32794C9.80319 9.30746 9.79529 9.28412 9.79324 9.25992C9.79118 9.23573 9.79502 9.21139 9.80443 9.189C9.81005 9.10913 9.78137 9.06581 9.72118 9.06975C9.67618 9.10125 9.63737 9.117 9.61487 9.06188C9.60699 9.018 9.60362 8.99438 9.63287 8.97019" fill="white"/>
<path d="M14.3574 9.18338C14.3765 9.20302 14.3872 9.22936 14.3872 9.25679C14.3872 9.28421 14.3765 9.31055 14.3574 9.33019C14.309 9.38194 14.277 9.40557 14.2286 9.45732C14.2072 9.50119 14.1931 9.56476 14.2606 9.58444C14.3861 9.62438 14.6786 9.4157 14.6786 9.40557C14.6942 9.39135 14.7052 9.37274 14.7102 9.35217C14.7151 9.3316 14.7137 9.31002 14.7061 9.29026C14.6786 9.25482 14.6173 9.27451 14.5762 9.27451C14.5548 9.27451 14.4901 9.25876 14.52 9.19913C14.5416 9.16364 14.5593 9.12592 14.5728 9.08663C14.5914 9.03488 14.5768 9.00338 14.5031 8.97413C14.4435 8.96427 14.3827 8.96427 14.3231 8.97413C14.2798 8.98594 14.2668 9.01013 14.2567 9.06582C14.2595 9.15301 14.3079 9.14907 14.3585 9.18507" fill="white"/>
</g>
<defs>
<clipPath id="clip0_2524_12357">
<rect width="18" height="18" fill="white"/>
</clipPath>
</defs>
</svg>
