<svg width="18" height="18" viewBox="0 0 18 18" fill="none" xmlns="http://www.w3.org/2000/svg">
<g clip-path="url(#clip0_2524_12301)">
<path d="M8.99962 18C13.97 18 17.9992 13.9707 17.9992 9.00034C17.9992 4.02998 13.97 0.000717163 8.99962 0.000717163C4.02927 0.000717163 0 4.02998 0 9.00034C0 13.9707 4.02927 18 8.99962 18Z" fill="white"/>
<path d="M17.4866 5.99922H11.9414C12.1823 7.92177 12.1837 10.0401 11.9461 11.9651H17.4984C17.8226 11.0364 18.0008 10.0392 18.0008 9.00007C18.0009 7.94735 17.8186 6.93783 17.4866 5.99922Z" fill="#EFECEC"/>
<path d="M11.9409 5.99923H17.486C17.4852 5.99638 17.4843 5.99399 17.4831 5.9914C16.3314 2.74363 13.3685 0.35413 9.80859 0.0369415C11.1863 0.792084 11.5888 3.18459 11.9409 5.99923Z" fill="#429945"/>
<path d="M9.80859 17.9626C13.3748 17.6449 16.3419 15.2471 17.4892 11.9907C17.4922 11.982 17.4948 11.9734 17.4979 11.9651H11.9454C11.596 14.795 11.1918 17.2043 9.80859 17.9626Z" fill="#0B0B0B"/>
<path d="M0 9.00004C0 10.0393 0.178488 11.0364 0.502326 11.9651H12.4083C12.6462 10.04 12.6445 7.92174 12.4039 5.99919H0.514297C0.182326 6.93784 0 7.94735 0 9.00004Z" fill="#EFEFEF"/>
<path d="M0.518475 5.99143C0.517639 5.99398 0.516765 5.99641 0.515625 5.99926H12.4053C12.0529 3.18457 11.1871 0.79211 9.8096 0.0369668C9.54314 0.0133686 9.27372 3.0518e-05 9.00118 3.0518e-05C5.08604 -7.48233e-06 1.75664 2.50045 0.518475 5.99143Z" fill="#49A948"/>
<path d="M12.4099 11.9651H0.503906C0.506908 11.9735 0.50972 11.982 0.51257 11.9906C1.7458 15.4905 5.07998 17.9999 9.00139 17.9999C9.27397 17.9999 9.54339 17.9865 9.80981 17.9626C11.1932 17.2044 12.0605 14.795 12.4099 11.9651Z" fill="#151515"/>
<path d="M0 9.00004C0 12.7463 2.29001 15.9574 5.54623 17.312V0.687775C2.29001 2.04218 0 5.25321 0 9.00004Z" fill="#E73B36"/>
</g>
<defs>
<clipPath id="clip0_2524_12301">
<rect width="18" height="18" fill="white"/>
</clipPath>
</defs>
</svg>
