<svg width="18" height="18" viewBox="0 0 18 18" fill="none" xmlns="http://www.w3.org/2000/svg">
<g clip-path="url(#clip0_2524_12325)">
<path d="M9 18C13.9706 18 18 13.9706 18 9C18 4.02944 13.9706 0 9 0C4.02944 0 0 4.02944 0 9C0 13.9706 4.02944 18 9 18Z" fill="#F0F0F0"/>
<path d="M1.85902 3.52061C1.15206 4.44041 0.618988 5.50054 0.308594 6.65223H4.99063L1.85902 3.52061Z" fill="#0052B4"/>
<path d="M17.6898 6.65222C17.3794 5.50057 16.8463 4.44044 16.1394 3.52065L13.0078 6.65222H17.6898Z" fill="#0052B4"/>
<path d="M0.308594 11.3479C0.619023 12.4995 1.1521 13.5597 1.85902 14.4794L4.99053 11.3479H0.308594Z" fill="#0052B4"/>
<path d="M14.4792 1.8605C13.5594 1.15355 12.4993 0.620473 11.3477 0.310043V4.99205L14.4792 1.8605Z" fill="#0052B4"/>
<path d="M3.51953 16.1395C4.43932 16.8465 5.49946 17.3795 6.65111 17.69V13.008L3.51953 16.1395Z" fill="#0052B4"/>
<path d="M6.65107 0.310043C5.49943 0.620473 4.43929 1.15355 3.51953 1.86047L6.65107 4.99201V0.310043Z" fill="#0052B4"/>
<path d="M11.3477 17.69C12.4993 17.3795 13.5594 16.8465 14.4792 16.1395L11.3477 13.008V17.69Z" fill="#0052B4"/>
<path d="M13.0078 11.3479L16.1394 14.4794C16.8463 13.5597 17.3794 12.4995 17.6898 11.3479H13.0078Z" fill="#0052B4"/>
<path d="M17.9238 7.8261H10.174H10.1739V0.0761836C9.78964 0.0261563 9.39786 0 9 0C8.60207 0 8.21035 0.0261563 7.8261 0.0761836V7.82603V7.82606H0.0761836C0.0261563 8.21036 0 8.60214 0 9C0 9.39793 0.0261563 9.78964 0.0761836 10.1739H7.82603H7.82606V17.9238C8.21036 17.9738 8.60207 18 9 18C9.39786 18 9.78964 17.9739 10.1739 17.9238V10.174V10.1739H17.9238C17.9738 9.78964 18 9.39793 18 9C18 8.60214 17.9738 8.21035 17.9238 7.8261Z" fill="#D80027"/>
<path d="M11.3477 11.3479L15.3638 15.364C15.5485 15.1793 15.7247 14.9863 15.8928 14.7862L12.4544 11.3478H11.3477V11.3479Z" fill="#D80027"/>
<path d="M6.65286 11.3479H6.65279L2.63672 15.3639C2.82136 15.5487 3.0144 15.7249 3.21451 15.893L6.65286 12.4546V11.3479Z" fill="#D80027"/>
<path d="M6.65061 6.65223V6.65216L2.6345 2.63602C2.44979 2.82066 2.27359 3.0137 2.10547 3.21381L5.54386 6.6522L6.65061 6.65223Z" fill="#D80027"/>
<path d="M11.3477 6.65223L15.3638 2.63605C15.1792 2.45134 14.9861 2.27514 14.786 2.10706L11.3477 5.54544V6.65223Z" fill="#D80027"/>
</g>
<defs>
<clipPath id="clip0_2524_12325">
<rect width="18" height="18" fill="white"/>
</clipPath>
</defs>
</svg>
