<svg width="728" height="735" viewBox="0 0 728 735" fill="none" xmlns="http://www.w3.org/2000/svg">
<path opacity="0.1" d="M163.889 387.634C149.093 389.178 130.494 416.104 122.029 376.413C110.189 320.904 180.652 87.0364 467.198 153.944C468.716 154.299 470.212 154.772 471.639 155.398C568.812 198.06 720.393 389.968 539.416 560.476C405.788 677.431 336.069 674.521 244.159 654.159C83.5807 618.586 -56.6365 356.118 157.711 148.09C424.071 -77.3408 678.46 234.526 662.065 418.911C631.961 598.36 526.489 671.297 353.696 739.193M353.696 739.193L327.35 738.936C323.757 738.901 320.058 738.359 316.607 737.354C-72.3073 624.002 -15.7033 258.688 59.2926 179.318C284.641 -122.692 614.609 -1.38486 708.262 318.264C796.851 620.631 432.339 759.372 353.696 739.193Z" stroke="#02C8DE" stroke-width="10"/>
</svg>
